<svg width="924" height="309" viewBox="0 0 924 309" fill="none" xmlns="http://www.w3.org/2000/svg">
<path d="M849.569 0.00077139H73.5497C70.721 0.00077139 67.9263 0.000771389 65.1045 0.0161992C62.7433 0.031627 60.4006 0.0763676 58.0162 0.114166C52.8365 0.175095 47.6689 0.630764 42.5584 1.47721C37.455 2.34209 32.5115 3.97268 27.895 6.31383C23.2844 8.67489 19.0715 11.7428 15.4093 15.4062C11.7278 19.059 8.65897 23.2812 6.32077 27.9104C3.97607 32.5309 2.35029 37.4821 1.49958 42.5931C0.640724 47.6974 0.178564 52.8606 0.117251 58.0363C0.045512 60.4014 0.0377981 62.7742 0 65.14V243.441C0.0377981 245.836 0.045512 248.156 0.117251 250.553C0.178622 255.728 0.640782 260.891 1.49958 265.995C2.34801 271.108 3.97388 276.062 6.32077 280.684C8.65785 285.299 11.7271 289.504 15.4093 293.137C19.0576 296.816 23.2732 299.886 27.895 302.229C32.5114 304.576 37.4544 306.217 42.5584 307.095C47.6697 307.935 52.8368 308.391 58.0162 308.459C60.3998 308.511 62.7433 308.541 65.1053 308.541C67.9263 308.557 70.721 308.557 73.5497 308.557H849.568C852.341 308.557 855.158 308.557 857.93 308.541C860.281 308.541 862.692 308.511 865.042 308.459C870.212 308.394 875.369 307.938 880.47 307.095C885.59 306.211 890.551 304.571 895.19 302.229C899.807 299.885 904.019 296.815 907.665 293.137C911.337 289.49 914.413 285.287 916.779 280.684C919.108 276.059 920.718 271.105 921.554 265.995C922.415 260.89 922.893 255.728 922.987 250.552C923.018 248.156 923.018 245.836 923.018 243.441C923.079 240.638 923.079 237.851 923.079 235.003V73.5621C923.079 70.7365 923.079 67.9348 923.018 65.14C923.018 62.7742 923.018 60.4014 922.987 58.0355C922.894 52.8594 922.415 47.6973 921.555 42.5923C920.716 37.4848 919.106 32.5345 916.779 27.9112C912.018 18.6317 904.467 11.0782 895.19 6.31306C890.551 3.97765 885.59 2.34749 880.47 1.47644C875.37 0.626393 870.212 0.170694 865.042 0.113394C862.692 0.0755962 860.281 0.0300842 857.93 0.0154278C855.158 0 852.341 0 849.568 0L849.569 0.00077139Z" fill="#A6A6A6"/>
<path d="M65.1415 301.807C62.7911 301.807 60.4977 301.777 58.1658 301.725C53.3354 301.662 48.5162 301.242 43.7478 300.468C39.3015 299.701 34.9942 298.277 30.9682 296.24C26.9788 294.221 23.3403 291.573 20.1918 288.398C16.9976 285.261 14.3382 281.622 12.319 277.626C10.2779 273.604 8.86524 269.293 8.13039 264.842C7.33707 260.061 6.90797 255.226 6.84679 250.379C6.79742 248.752 6.7334 243.336 6.7334 243.336V65.1396C6.7334 65.1396 6.80128 59.8062 6.84679 58.2387C6.90557 53.3999 7.33235 48.5725 8.12344 43.7983C8.85975 39.336 10.2736 35.0123 12.3159 30.977C14.3273 26.9836 16.9716 23.3418 20.1463 20.193C23.3177 17.0143 26.968 14.3528 30.9643 12.3056C34.9812 10.276 39.2804 8.86168 43.7177 8.10996C48.5018 7.32793 53.3378 6.90531 58.1851 6.84565L65.1454 6.75H857.893L864.936 6.84797C869.739 6.90503 874.531 7.32431 879.272 8.10225C883.754 8.86361 888.098 10.288 892.161 12.3287C900.167 16.4544 906.681 22.9816 910.79 30.9956C912.8 35.0032 914.192 39.2918 914.919 43.7158C915.719 48.529 916.167 53.3942 916.259 58.2727C916.282 60.4573 916.282 62.8038 916.282 65.1396C916.344 68.0323 916.344 70.7854 916.344 73.5616V235.003C916.344 237.805 916.344 240.54 916.282 243.297C916.282 245.805 916.282 248.103 916.252 250.468C916.161 255.26 915.72 260.039 914.932 264.766C914.213 269.248 912.808 273.593 910.767 277.648C908.734 281.601 906.09 285.208 902.934 288.337C899.782 291.529 896.137 294.193 892.139 296.225C888.087 298.277 883.749 299.706 879.272 300.466C874.504 301.245 869.684 301.665 864.853 301.724C862.546 301.778 860.238 301.806 857.931 301.807L849.569 301.822L65.1415 301.807Z" fill="black"/>
<path d="M191.065 156.598C191.147 150.16 192.858 143.847 196.036 138.247C199.214 132.647 203.757 127.942 209.242 124.57C205.758 119.593 201.161 115.498 195.816 112.609C190.472 109.719 184.528 108.116 178.455 107.926C165.501 106.566 152.944 115.677 146.342 115.677C139.614 115.677 129.451 108.061 118.508 108.286C111.429 108.515 104.53 110.573 98.4828 114.261C92.4359 117.948 87.4474 123.139 84.0033 129.328C69.0846 155.158 80.2127 193.118 94.5042 213.997C101.654 224.221 110.01 235.64 120.944 235.235C131.644 234.792 135.639 228.412 148.556 228.412C161.351 228.412 165.1 235.235 176.256 234.978C187.737 234.792 194.971 224.709 201.87 214.388C207.007 207.104 210.96 199.053 213.583 190.533C206.913 187.712 201.22 182.99 197.216 176.955C193.212 170.92 191.072 163.841 191.065 156.598ZM169.993 94.1943C176.253 86.6794 179.337 77.0202 178.59 67.2681C169.026 68.2726 160.192 72.8435 153.847 80.0701C150.745 83.6005 148.369 87.7077 146.855 92.1569C145.342 96.606 144.72 101.31 145.025 106C149.809 106.049 154.541 105.012 158.866 102.967C163.191 100.922 166.996 97.9227 169.993 94.1943ZM326.315 209.354H289.802L281.034 235.244H265.568L300.153 139.453H316.221L350.806 235.244H335.076L326.315 209.354ZM293.584 197.406H322.526L308.259 155.386H307.859L293.584 197.406ZM425.496 200.329C425.496 222.031 413.88 235.975 396.351 235.975C391.91 236.207 387.494 235.185 383.607 233.024C379.721 230.863 376.522 227.651 374.376 223.756H374.044V258.348H359.709V165.405H373.585V177.022H373.849C376.094 173.146 379.347 169.951 383.263 167.776C387.178 165.602 391.61 164.53 396.087 164.675C413.812 164.675 425.496 178.686 425.496 200.328V200.329ZM410.761 200.329C410.761 186.189 403.454 176.893 392.306 176.893C381.352 176.893 373.985 186.385 373.985 200.328C373.985 214.401 381.352 223.825 392.306 223.825C403.454 223.825 410.761 214.597 410.761 200.328V200.329ZM502.364 200.329C502.364 222.031 490.748 235.975 473.218 235.975C468.778 236.207 464.361 235.184 460.475 233.023C456.589 230.862 453.39 227.651 451.244 223.756H450.913V258.348H436.577V165.405H450.453V177.022H450.717C452.961 173.146 456.214 169.951 460.13 167.776C464.046 165.602 468.478 164.53 472.954 164.675C490.68 164.675 502.364 178.686 502.364 200.328V200.329ZM487.629 200.329C487.629 186.189 480.322 176.893 469.173 176.893C458.219 176.893 450.852 186.385 450.852 200.328C450.852 214.401 458.219 223.825 469.173 223.825C480.322 223.825 487.629 214.597 487.629 200.328V200.329ZM553.167 208.555C554.23 218.054 563.458 224.292 576.068 224.292C588.151 224.292 596.844 218.054 596.844 209.489C596.844 202.053 591.601 197.601 579.187 194.551L566.772 191.56C549.182 187.311 541.016 179.085 541.016 165.736C541.016 149.208 555.42 137.857 575.872 137.857C596.113 137.857 609.989 149.208 610.456 165.736H595.985C595.119 156.177 587.217 150.406 575.668 150.406C564.12 150.406 556.218 156.245 556.218 164.742C556.218 171.515 561.265 175.5 573.611 178.55L584.166 181.142C603.819 185.789 611.986 193.684 611.986 207.695C611.986 225.617 597.71 236.841 575.005 236.841C553.761 236.841 539.419 225.88 538.492 208.554L553.167 208.555ZM642.924 148.878V165.405H656.205V176.758H642.924V215.259C642.924 221.241 645.583 224.028 651.422 224.028C652.998 224 654.572 223.889 656.137 223.696V234.981C653.512 235.472 650.844 235.693 648.175 235.643C634.035 235.643 628.521 230.333 628.521 216.788V176.758H618.366V165.405H628.521V148.878H642.924ZM663.897 200.329C663.897 178.354 676.838 164.547 697.02 164.547C717.269 164.547 730.15 178.354 730.15 200.329C730.15 222.363 717.336 236.111 697.019 236.111C676.71 236.111 663.897 222.363 663.897 200.329ZM715.543 200.329C715.543 185.255 708.636 176.358 697.019 176.358C685.404 176.358 678.503 185.322 678.503 200.329C678.503 215.463 685.404 224.292 697.019 224.292C708.636 224.292 715.543 215.463 715.543 200.329ZM741.969 165.405H755.642V177.292H755.974C756.899 173.58 759.074 170.299 762.133 168.001C765.192 165.703 768.949 164.529 772.773 164.675C774.425 164.669 776.072 164.848 777.684 165.209V178.618C775.599 177.981 773.423 177.688 771.243 177.752C769.161 177.668 767.084 178.035 765.157 178.828C763.23 179.622 761.497 180.823 760.078 182.35C758.659 183.876 757.587 185.692 756.936 187.672C756.284 189.652 756.069 191.749 756.305 193.82V235.244H741.969V165.405ZM843.779 214.732C841.851 227.41 829.504 236.111 813.707 236.111C793.391 236.111 780.78 222.499 780.78 200.66C780.78 178.754 793.458 164.547 813.104 164.547C832.427 164.547 844.578 177.82 844.578 198.995V203.907H795.251V204.773C795.023 207.343 795.345 209.933 796.195 212.369C797.045 214.805 798.403 217.033 800.18 218.904C801.957 220.775 804.112 222.247 806.501 223.221C808.89 224.195 811.46 224.65 814.038 224.555C817.426 224.873 820.826 224.088 823.732 222.318C826.638 220.548 828.895 217.888 830.167 214.732H843.779ZM795.319 193.888H830.234C830.363 191.577 830.013 189.264 829.205 187.095C828.398 184.926 827.151 182.947 825.542 181.282C823.934 179.618 821.999 178.304 819.858 177.423C817.718 176.542 815.418 176.112 813.104 176.162C810.77 176.148 808.456 176.597 806.295 177.482C804.135 178.367 802.172 179.671 800.518 181.319C798.865 182.967 797.554 184.927 796.662 187.084C795.769 189.241 795.313 191.553 795.319 193.888ZM291.787 67.3507C294.793 67.135 297.809 67.589 300.617 68.68C303.426 69.771 305.958 71.4718 308.03 73.6598C310.101 75.8477 311.662 78.4682 312.598 81.3322C313.535 84.1962 313.824 87.2323 313.445 90.2216C313.445 104.926 305.497 113.379 291.787 113.379H275.161V67.3499L291.787 67.3507ZM282.311 106.869H290.989C293.136 106.997 295.285 106.645 297.28 105.838C299.274 105.031 301.063 103.789 302.517 102.204C303.971 100.618 305.053 98.7281 305.685 96.6715C306.316 94.6149 306.481 92.4434 306.167 90.315C306.458 88.195 306.277 86.0369 305.636 83.9953C304.994 81.9538 303.91 80.0793 302.459 78.5062C301.008 76.9331 299.228 75.7003 297.245 74.8962C295.262 74.0921 293.125 73.7366 290.989 73.855H282.311V106.869ZM321.52 95.9955C321.302 93.7128 321.563 91.4097 322.287 89.2338C323.011 87.0579 324.181 85.0574 325.724 83.3604C327.266 81.6635 329.146 80.3076 331.243 79.3798C333.34 78.452 335.608 77.9727 337.901 77.9727C340.194 77.9727 342.462 78.452 344.559 79.3798C346.656 80.3076 348.536 81.6635 350.078 83.3604C351.62 85.0574 352.791 87.0579 353.515 89.2338C354.239 91.4097 354.5 93.7128 354.281 95.9955C354.505 98.2808 354.247 100.588 353.525 102.767C352.804 104.947 351.634 106.952 350.091 108.653C348.548 110.354 346.667 111.713 344.567 112.643C342.468 113.573 340.197 114.053 337.901 114.053C335.605 114.053 333.334 113.573 331.234 112.643C329.135 111.713 327.253 110.354 325.711 108.653C324.168 106.952 322.998 104.947 322.276 102.767C321.555 100.588 321.297 98.2808 321.52 95.9955ZM347.231 95.9955C347.231 88.4659 343.848 84.0629 337.912 84.0629C331.953 84.0629 328.602 88.4659 328.602 95.9955C328.602 103.585 331.954 107.954 337.912 107.954C343.848 107.954 347.231 103.555 347.231 95.9955ZM397.831 113.378H390.719L383.54 87.7956H382.998L375.849 113.378H368.806L359.231 78.6423H366.184L372.407 105.147H372.919L380.06 78.6423H386.637L393.778 105.147H394.32L400.512 78.6423H407.368L397.831 113.378ZM415.42 78.6431H422.019V84.1608H422.532C423.401 82.1788 424.866 80.5173 426.724 79.4079C428.583 78.2986 430.741 77.7966 432.898 77.972C434.588 77.8449 436.285 78.0998 437.863 78.7177C439.441 79.3355 440.86 80.3006 442.015 81.5413C443.169 82.782 444.03 84.2666 444.533 85.8851C445.036 87.5036 445.168 89.2146 444.92 90.8912V113.377H438.065V92.6129C438.065 87.0312 435.639 84.2549 430.57 84.2549C429.422 84.2016 428.277 84.3969 427.212 84.8276C426.147 85.2583 425.188 85.9141 424.4 86.7502C423.612 87.5862 423.014 88.5827 422.648 89.6713C422.281 90.76 422.154 91.915 422.276 93.0573V113.378H415.42V78.6431ZM455.843 65.0828H462.698V113.378H455.843V65.0828ZM472.228 95.9955C472.009 93.7125 472.27 91.409 472.994 89.2329C473.718 87.0567 474.889 85.0559 476.432 83.3587C477.974 81.6615 479.854 80.3055 481.952 79.3776C484.049 78.4496 486.317 77.9703 488.61 77.9703C490.904 77.9703 493.172 78.4496 495.269 79.3776C497.367 80.3055 499.247 81.6615 500.789 83.3587C502.332 85.0559 503.503 87.0567 504.227 89.2329C504.951 91.409 505.212 93.7125 504.993 95.9955C505.215 98.2805 504.957 100.587 504.234 102.766C503.512 104.945 502.342 106.949 500.799 108.649C499.256 110.349 497.375 111.708 495.276 112.637C493.177 113.567 490.906 114.047 488.61 114.047C486.315 114.047 484.044 113.567 481.945 112.637C479.846 111.708 477.965 110.349 476.422 108.649C474.879 106.949 473.709 104.945 472.986 102.766C472.264 100.587 472.006 98.2805 472.228 95.9955ZM497.938 95.9955C497.938 88.4659 494.556 84.0629 488.62 84.0629C482.661 84.0629 479.309 88.4659 479.309 95.9955C479.309 103.585 482.662 107.954 488.62 107.954C494.556 107.954 497.938 103.555 497.938 95.9955ZM512.21 103.555C512.21 97.3022 516.865 93.6975 525.129 93.1853L534.538 92.643V89.6446C534.538 85.9759 532.112 83.9047 527.427 83.9047C523.6 83.9047 520.948 85.3094 520.187 87.7655H513.55C514.251 81.7988 519.863 77.9727 527.743 77.9727C536.451 77.9727 541.363 82.3079 541.363 89.6446V113.378H534.764V108.497H534.221C533.12 110.248 531.575 111.675 529.742 112.633C527.909 113.591 525.854 114.046 523.788 113.95C522.33 114.102 520.856 113.946 519.462 113.494C518.068 113.041 516.784 112.301 515.693 111.322C514.602 110.342 513.728 109.145 513.128 107.807C512.528 106.47 512.215 105.021 512.21 103.555ZM534.538 100.587V97.6825L526.055 98.2248C521.272 98.5449 519.102 100.173 519.102 103.234C519.102 106.361 521.814 108.18 525.543 108.18C526.636 108.291 527.74 108.181 528.789 107.856C529.838 107.531 530.811 106.999 531.65 106.29C532.489 105.582 533.177 104.712 533.673 103.732C534.169 102.752 534.463 101.683 534.538 100.587ZM550.373 95.9955C550.373 85.0194 556.015 78.0668 564.791 78.0668C566.962 77.9668 569.116 78.4867 571.002 79.5658C572.889 80.6449 574.429 82.2387 575.443 84.1608H575.955V65.082H582.81V113.377H576.241V107.889H575.699C574.607 109.798 573.013 111.372 571.09 112.44C569.168 113.509 566.989 114.031 564.791 113.95C555.954 113.95 550.373 106.996 550.373 95.9947V95.9955ZM557.454 95.9955C557.454 103.362 560.927 107.796 566.734 107.796C572.511 107.796 576.083 103.299 576.083 96.0248C576.083 88.7861 572.474 84.2248 566.734 84.2248C560.964 84.2248 557.454 88.6881 557.454 95.9955ZM611.172 95.9955C610.954 93.7128 611.215 91.4097 611.938 89.2338C612.662 87.0579 613.833 85.0574 615.375 83.3604C616.918 81.6635 618.798 80.3076 620.895 79.3798C622.992 78.452 625.259 77.9727 627.552 77.9727C629.846 77.9727 632.113 78.452 634.21 79.3798C636.307 80.3076 638.187 81.6635 639.73 83.3604C641.272 85.0574 642.443 87.0579 643.167 89.2338C643.89 91.4097 644.151 93.7128 643.933 95.9955C644.156 98.2808 643.899 100.588 643.177 102.767C642.455 104.947 641.285 106.952 639.743 108.653C638.2 110.354 636.318 111.713 634.219 112.643C632.12 113.573 629.849 114.053 627.552 114.053C625.256 114.053 622.985 113.573 620.886 112.643C618.787 111.713 616.905 110.354 615.362 108.653C613.82 106.952 612.65 104.947 611.928 102.767C611.206 100.588 610.949 98.2808 611.172 95.9955ZM636.882 95.9955C636.882 88.4659 633.5 84.0629 627.564 84.0629C621.605 84.0629 618.253 88.4659 618.253 95.9955C618.253 103.585 621.606 107.954 627.564 107.954C633.5 107.954 636.882 103.555 636.882 95.9955ZM653.131 78.6431H659.73V84.1608H660.242C661.111 82.1788 662.577 80.5173 664.435 79.4079C666.293 78.2986 668.451 77.7966 670.608 77.972C672.298 77.8449 673.995 78.0998 675.574 78.7177C677.152 79.3355 678.571 80.3006 679.726 81.5413C680.88 82.782 681.741 84.2666 682.244 85.8851C682.747 87.5036 682.879 89.2146 682.631 90.8912V113.377H675.776V92.6129C675.776 87.0312 673.35 84.2549 668.28 84.2549C667.133 84.2016 665.987 84.3969 664.922 84.8276C663.858 85.2583 662.898 85.9141 662.111 86.7502C661.323 87.5862 660.725 88.5827 660.359 89.6713C659.992 90.76 659.865 91.915 659.986 93.0573V113.378H653.132L653.131 78.6431ZM721.367 69.995V78.8012H728.892V84.5751H721.367V102.436C721.367 106.074 722.865 107.668 726.278 107.668C727.152 107.665 728.024 107.612 728.892 107.509V113.22C727.66 113.44 726.413 113.557 725.163 113.57C717.54 113.57 714.504 110.888 714.504 104.192V84.5751H708.99V78.8004H714.504V69.9958L721.367 69.995ZM738.255 65.0828H745.051V84.2248H745.593C746.504 82.2244 748.01 80.5535 749.905 79.44C751.801 78.3264 753.993 77.8243 756.184 78.002C757.865 77.9105 759.546 78.1912 761.107 78.8241C762.667 79.457 764.069 80.4265 765.211 81.6634C766.354 82.9003 767.209 84.3742 767.717 85.9798C768.224 87.5854 768.371 89.2832 768.147 90.9521V113.378H761.285V92.643C761.285 87.0944 758.7 84.285 753.857 84.285C752.679 84.1885 751.494 84.3505 750.384 84.7597C749.275 85.169 748.269 85.8157 747.436 86.6544C746.603 87.4932 745.963 88.5039 745.562 89.6157C745.16 90.7275 745.006 91.9137 745.111 93.0912V113.378H738.255V65.0828ZM808.118 103.999C807.187 107.173 805.169 109.92 802.417 111.757C799.666 113.594 796.356 114.405 793.067 114.048C790.778 114.109 788.504 113.67 786.402 112.764C784.3 111.857 782.42 110.504 780.893 108.798C779.367 107.092 778.23 105.075 777.561 102.885C776.892 100.696 776.708 98.3874 777.021 96.1197C776.716 93.8449 776.903 91.5312 777.571 89.3351C778.238 87.1391 779.369 85.112 780.888 83.3912C782.406 81.6703 784.277 80.2959 786.373 79.3609C788.469 78.426 790.741 77.9523 793.036 77.972C802.701 77.972 808.532 84.5751 808.532 95.4825V97.8746H784.004V98.2587C783.897 99.5334 784.057 100.816 784.475 102.026C784.892 103.235 785.558 104.343 786.429 105.28C787.3 106.217 788.357 106.962 789.532 107.466C790.708 107.971 791.976 108.224 793.255 108.21C794.895 108.407 796.556 108.111 798.027 107.361C799.499 106.612 800.714 105.441 801.519 103.999H808.118ZM784.004 92.805H801.549C801.635 91.6392 801.477 90.4683 801.084 89.3674C800.69 88.2665 800.071 87.26 799.266 86.4126C798.461 85.5652 797.487 84.8955 796.408 84.4468C795.329 83.998 794.167 83.78 792.999 83.8067C791.813 83.7918 790.636 84.0144 789.538 84.4614C788.44 84.9083 787.442 85.5707 786.604 86.4093C785.766 87.2479 785.104 88.2458 784.657 89.3442C784.211 90.4427 783.989 91.6194 784.004 92.805Z" fill="white"/>
</svg>
