<svg width="924" height="274" viewBox="0 0 924 274" fill="none" xmlns="http://www.w3.org/2000/svg">
<path d="M888.889 273.947H34.1881C15.3848 273.947 0 258.537 0 239.703V34.2435C0 15.4095 15.3845 0 34.1881 0H888.888C907.692 0 923.077 15.4095 923.077 34.2435V239.703C923.077 258.537 907.692 273.947 888.888 273.947" fill="black"/>
<path d="M888.889 0H34.1881C15.3848 0 0 15.4095 0 34.2435V239.703C0 258.537 15.3845 273.947 34.1881 273.947H888.888C907.692 273.947 923.077 258.537 923.077 239.703V34.2435C923.077 15.4095 907.692 0 888.888 0M888.888 5.47876C904.725 5.47876 917.606 18.3846 917.606 34.2435V239.703C917.606 255.565 904.724 268.471 888.888 268.471H34.1881C18.3551 268.471 5.47014 255.565 5.47014 239.703V34.2435C5.47014 18.3846 18.3548 5.47907 34.1881 5.47907H888.888" fill="#A6A6A6"/>
<path d="M324.228 70.1541C324.228 75.892 322.532 80.4612 319.134 83.8698C315.275 87.9228 310.245 89.9509 304.062 89.9509C298.14 89.9509 293.106 87.8963 288.966 83.7814C284.818 79.6696 282.748 74.5707 282.748 68.4871C282.748 62.4007 284.818 57.3049 288.966 53.1897C293.106 49.0781 298.14 47.0205 304.062 47.0205C307 47.0205 309.813 47.5961 312.484 48.7439C315.154 49.8944 317.297 51.4217 318.899 53.3343L315.293 56.9484C312.577 53.6981 308.838 52.0742 304.062 52.0742C299.743 52.0742 296.009 53.5941 292.858 56.6357C289.705 59.6804 288.13 63.6288 288.13 68.4871C288.13 73.3456 289.705 77.2937 292.858 80.3387C296.009 83.3804 299.743 84.9 304.062 84.9C308.643 84.9 312.462 83.3721 315.52 80.312C317.505 78.3184 318.653 75.5473 318.96 71.9889H304.061V67.0531H323.942C324.134 68.1263 324.227 69.1562 324.227 70.1541" fill="white"/>
<path d="M324.229 70.1534H323.545C323.539 75.7605 321.904 80.1155 318.651 83.3849L318.644 83.3905L318.641 83.396C314.904 87.3093 310.101 89.257 304.062 89.2653C298.299 89.257 293.475 87.2881 289.447 83.2966C285.427 79.2971 283.44 74.4145 283.432 68.4864C283.44 62.5555 285.427 57.6757 289.447 53.679C293.475 49.6847 298.299 47.713 304.062 47.7047C306.912 47.7047 309.626 48.2618 312.214 49.3717C314.805 50.4902 316.851 51.9559 318.376 53.7756L318.9 53.3336L318.416 52.8495L314.81 56.4661L315.293 56.9478L315.82 56.5095C312.978 53.0982 308.988 51.3785 304.062 51.3887C299.584 51.3831 295.644 52.9861 292.385 56.1432C289.095 59.3104 287.441 63.481 287.447 68.4864C287.441 73.4921 289.095 77.6624 292.385 80.8299C295.644 83.987 299.584 85.5897 304.062 85.5841C308.795 85.5924 312.829 83.9842 316.004 80.7954C318.125 78.6655 319.327 75.7153 319.642 72.047L319.706 71.3033H304.746V67.7372H323.943V67.0524L323.269 67.1727C323.456 68.2112 323.545 69.198 323.545 70.1534H324.912C324.912 69.1124 324.816 68.0425 324.615 66.9299L324.514 66.3675H303.379V72.673H318.961V71.9882L318.28 71.9294C317.978 75.3755 316.883 77.9705 315.037 79.8274C312.099 82.7592 308.494 84.2061 304.062 84.2144C299.904 84.2089 296.376 82.7749 293.334 79.8456C290.321 76.9268 288.822 73.2003 288.814 68.4864C288.822 63.7725 290.321 60.046 293.334 57.1272C296.376 54.1979 299.904 52.7639 304.062 52.7584C308.686 52.7694 312.177 54.2995 314.771 57.3894L315.252 57.9619L319.383 53.8181L319.827 53.3742L319.423 52.8947C317.743 50.8888 315.505 49.2966 312.754 48.1146C309.998 46.929 307.089 46.335 304.062 46.335C297.984 46.3297 292.738 48.4698 288.483 52.7051C284.212 56.9321 282.06 62.2452 282.065 68.4864C282.06 74.7248 284.212 80.041 288.486 84.2704C292.738 88.5029 297.984 90.6406 304.062 90.635C310.393 90.6406 315.644 88.5346 319.629 84.3425L319.134 83.8691L319.618 84.3536C323.16 80.8087 324.917 76.02 324.912 70.1534H324.228M355.745 52.9886H337.062V66.0176H353.911V70.9552H337.062V83.9842H355.745V89.0323H331.795V47.9404H355.745V52.9886Z" fill="white"/>
<path d="M355.745 52.9889V52.304H336.378V66.7027H353.227V70.2688L336.378 70.2706V84.6693H355.061V88.3478H332.479V48.6255H355.061V52.9889H355.745V52.304V52.9889H356.429V47.2559H331.111V89.7175H356.429V83.2996H337.746V71.6403H354.594V65.333H337.746V53.6737H356.429V52.9889H355.745ZM377.975 89.0329H372.7V52.9885H361.242V47.9404H389.434V52.9885H377.975V89.0323" fill="white"/>
<path d="M377.975 89.0329V88.3478H373.383V52.304H361.925V48.6259H388.75V52.304H377.291V89.0326H377.975V88.3478V89.0326H378.659V53.6737H390.117V47.2559H360.558V53.6734H372.016V89.7172H378.659V89.0323H377.975M409.831 89.0329V47.9404H415.101V89.0323H409.831" fill="white"/>
<path d="M409.832 89.0329H410.516V48.6255H414.418V88.3478H409.832V89.0326H410.516H409.832V89.7175H415.785V47.2559H409.148V89.7175H409.832V89.0326M438.486 89.0329H433.211V52.9885H421.753V47.9404H449.944V52.9885H438.486V89.0323" fill="white"/>
<path d="M438.485 89.0334V88.3482H433.894V52.3044H422.436V48.6263H449.26V52.3044H437.801V89.033H438.485V88.3482V89.033H439.169V53.6741H450.627V47.2563H421.068V53.6738H432.526V89.7176H439.169V89.0327H438.485M477.123 80.2827C480.16 83.3616 483.875 84.8997 488.269 84.8997C492.663 84.8997 496.38 83.3616 499.412 80.2827C502.452 77.2035 503.974 73.2675 503.974 68.4871C503.974 63.707 502.452 59.7709 499.412 56.6917C496.38 53.6126 492.663 52.0742 488.269 52.0742C483.875 52.0742 480.16 53.6126 477.123 56.6917C474.091 59.7709 472.569 63.7067 472.569 68.4871C472.569 73.2675 474.091 77.2035 477.123 80.2827ZM503.312 83.7226C499.278 87.877 494.262 89.9509 488.269 89.9509C482.27 89.9509 477.256 87.877 473.232 83.7226C469.196 79.573 467.187 74.4934 467.187 68.4871C467.187 62.4808 469.196 57.4003 473.232 53.2515C477.256 49.0963 482.27 47.0205 488.269 47.0205C494.231 47.0205 499.233 49.1074 503.285 53.2783C507.331 57.4489 509.356 62.5183 509.356 68.4871C509.356 74.4934 507.336 79.573 503.312 83.7226Z" fill="white"/>
<path d="M477.123 80.282L476.637 80.7634C479.787 83.9657 483.716 85.5924 488.269 85.5841C492.82 85.5924 496.755 83.9657 499.899 80.7634C503.069 77.5581 504.663 73.4114 504.658 68.4864C504.663 63.5617 503.069 59.4147 499.899 56.2094C496.755 53.0071 492.82 51.3807 488.269 51.3887C483.716 51.3807 479.787 53.0071 476.637 56.2094C473.475 59.4147 471.877 63.5617 471.886 68.4864C471.877 73.4111 473.475 77.5581 476.637 80.7634L477.123 80.282L477.61 79.8003C474.709 76.844 473.259 73.1252 473.253 68.4864C473.259 63.8479 474.709 60.1291 477.609 57.1725C480.537 54.2167 484.033 52.7667 488.269 52.7587C492.502 52.7667 496.007 54.2167 498.926 57.1725C501.832 60.1291 503.283 63.8479 503.288 68.4864C503.283 73.1249 501.832 76.844 498.926 79.8003C496.007 82.7564 492.503 84.2061 488.269 84.2141C484.033 84.2061 480.537 82.7564 477.609 79.8003L477.123 80.282ZM503.312 83.722L502.823 83.2461C498.902 87.2696 494.108 89.2574 488.269 89.2654C482.428 89.257 477.633 87.2696 473.72 83.2461L473.702 83.2246L473.72 83.2461C469.808 79.2088 467.877 74.3401 467.871 68.4864C467.877 62.6327 469.808 57.764 473.72 53.727C477.633 49.7032 482.428 47.713 488.269 47.705C494.07 47.713 498.854 49.7115 502.796 53.7562C506.723 57.8121 508.665 62.6731 508.673 68.4864C508.665 74.3401 506.728 79.2088 502.823 83.2461L503.312 83.722L503.804 84.1978C507.949 79.9339 510.045 74.6448 510.04 68.4864C510.045 62.3631 507.941 57.0847 503.776 52.8018C499.61 48.5019 494.391 46.3276 488.269 46.335C482.116 46.3276 476.881 48.4917 472.74 52.775V52.7719C468.587 57.0389 466.498 62.328 466.504 68.4864C466.498 74.6448 468.587 79.9339 472.74 84.2006L472.759 84.22L472.74 84.1978C476.881 88.4811 482.116 90.6406 488.269 90.635C494.42 90.6406 499.655 88.4811 503.804 84.1978L503.312 83.722ZM516.755 89.0327V47.9401H523.171L543.109 79.9068H543.336L543.109 71.9879V47.9401H548.384V89.032H542.882L522.022 55.5162H521.795L522.022 63.4379V89.032H516.755" fill="white"/>
<path d="M516.755 89.0329H517.439V48.6255H522.791L542.73 80.5923H544.039L543.793 71.9783V48.6259H547.701V88.3478H543.262L522.402 54.8319H521.093L521.338 63.4496V88.3478H516.755V89.0326H517.439H516.755V89.7175H522.706V63.4277L522.479 55.4983L521.795 55.5168V56.2016H522.022V55.5168L521.442 55.8809L542.503 89.7175H549.068V47.2559H542.426V71.9965L542.653 79.9259L543.337 79.9074V79.2226H543.109V79.9074L543.689 79.5439L523.55 47.2559H516.072V89.7175H516.756V89.0326M731.187 205.46H743.946V119.844H731.187L731.187 205.46ZM846.106 150.685L831.481 187.804H831.043L815.864 150.684H802.12L824.882 202.565L811.905 231.423H825.217L860.294 150.684L846.106 150.685ZM773.751 195.736C769.566 195.736 763.741 193.643 763.741 188.464C763.741 181.856 771.002 179.323 777.265 179.323C782.879 179.323 785.512 180.534 788.923 182.188C787.932 190.118 781.115 195.736 773.751 195.736ZM775.289 148.811C766.051 148.811 756.486 152.888 752.527 161.92L763.85 166.656C766.27 161.92 770.776 160.377 775.508 160.377C782.106 160.377 788.814 164.344 788.923 171.393V172.274C786.612 170.952 781.669 168.97 775.617 168.97C763.412 168.97 750.982 175.687 750.982 188.245C750.982 199.7 760.992 207.081 772.205 207.081C780.787 207.081 785.512 203.226 788.486 198.711H788.923V205.318H801.238V172.493C801.238 157.295 789.915 148.811 775.289 148.811ZM696.438 161.107H678.291V131.76H696.438C705.977 131.76 711.392 139.67 711.392 146.433C711.392 153.068 705.976 161.107 696.438 161.107ZM696.11 119.844H665.539V205.46H678.291V173.023H696.11C710.25 173.023 724.151 162.768 724.151 146.433C724.151 130.098 710.25 119.844 696.11 119.844ZM529.402 195.751C520.588 195.751 513.208 188.36 513.208 178.207C513.208 167.948 520.588 160.444 529.402 160.444C538.104 160.444 544.934 167.948 544.934 178.207C544.934 188.36 538.104 195.751 529.402 195.751H529.402ZM544.052 155.479H543.611C540.748 152.059 535.238 148.97 528.299 148.97C513.758 148.97 500.43 161.768 500.43 178.207C500.43 194.537 513.758 207.226 528.299 207.226C535.238 207.226 540.748 204.135 543.611 200.607H544.052V204.799C544.052 215.945 538.104 221.902 528.521 221.902C520.7 221.902 515.853 216.273 513.868 211.53L502.744 216.164C505.938 223.887 514.421 233.377 528.521 233.377C543.502 233.377 556.17 224.548 556.17 203.034V150.735H544.052V155.479ZM564.982 205.46H577.76V119.84H564.982V205.46ZM596.597 177.215C596.266 165.96 605.299 160.224 611.798 160.224C616.869 160.224 621.163 162.76 622.592 166.404L596.597 177.215ZM636.253 167.506C633.833 160.994 626.448 148.97 611.357 148.97C596.376 148.97 583.929 160.775 583.929 178.098C583.929 194.428 596.266 207.226 612.789 207.226C626.12 207.226 633.833 199.061 637.026 194.317L627.111 187.696C623.809 192.552 619.289 195.751 612.789 195.751C606.29 195.751 601.665 192.771 598.689 186.925L637.573 170.815L636.253 167.506ZM326.454 157.907V170.264H355.975C355.094 177.215 352.78 182.29 349.255 185.821C344.96 190.125 338.24 194.869 326.453 194.869C308.277 194.869 294.068 180.195 294.068 161.989C294.068 143.785 308.277 129.109 326.454 129.109C336.258 129.109 343.416 132.971 348.705 137.936L357.407 129.221C350.027 122.158 340.222 116.751 326.454 116.751C301.557 116.751 280.628 137.054 280.628 161.989C280.628 186.925 301.557 207.226 326.454 207.226C339.894 207.226 350.027 202.814 357.957 194.537C366.109 186.372 368.644 174.898 368.644 165.631C368.644 162.76 368.424 160.114 367.981 157.907H326.454ZM402.207 195.751C393.392 195.751 385.791 188.469 385.791 178.098C385.791 167.616 393.392 160.444 402.207 160.444C411.018 160.444 418.619 167.616 418.619 178.098C418.619 188.469 411.018 195.751 402.207 195.751ZM402.207 148.97C386.122 148.97 373.013 161.216 373.013 178.098C373.013 194.869 386.122 207.226 402.207 207.226C418.288 207.226 431.397 194.869 431.397 178.098C431.397 161.216 418.288 148.97 402.207 148.97ZM465.887 195.751C457.076 195.751 449.474 188.469 449.474 178.098C449.474 167.616 457.076 160.444 465.887 160.444C474.698 160.444 482.3 167.616 482.3 178.098C482.3 188.469 474.698 195.751 465.887 195.751H465.887ZM465.887 148.97C449.803 148.97 436.697 161.216 436.697 178.098C436.697 194.869 449.803 207.226 465.887 207.226C481.969 207.226 495.078 194.869 495.078 178.098C495.078 161.216 481.969 148.97 465.887 148.97H465.887Z" fill="white"/>
<path d="M71.8538 52.1275C69.5591 54.2011 68.1895 57.6598 68.1895 62.2509V61.213V212.713V211.715C68.1895 215.955 69.3643 219.229 71.3539 221.338L71.8618 221.825V221.827C73.4721 223.283 75.5371 224.056 77.9038 224.053C80.2163 224.053 82.818 223.315 85.5639 221.755L184.813 165.272L218.905 145.869C223.234 143.405 225.665 140.227 226.071 136.989V136.976C225.665 133.731 223.234 130.556 218.905 128.092L184.81 108.69L85.5642 52.2075C82.8125 50.6455 80.2089 49.9043 77.8902 49.9043C75.5264 49.9043 73.4641 50.6747 71.8544 52.1275H71.8538Z" fill="#00C1FF"/>
<path d="M71.8621 221.825L71.3539 221.338C69.3643 219.23 68.1895 215.955 68.1895 211.715V212.713V61.2508V62.2511C68.1895 57.66 69.5591 54.2014 71.8538 52.1277L156.57 136.979L71.8621 221.825Z" fill="url(#paint0_linear_1325_7615)"/>
<path d="M184.813 165.271L156.57 136.978L184.811 108.69L218.905 128.091C223.234 130.555 225.665 133.73 226.071 136.976V136.988C225.665 140.226 223.234 143.404 218.905 145.868L184.813 165.271" fill="url(#paint1_linear_1325_7615)"/>
<path d="M77.9037 224.053C75.5374 224.055 73.4724 223.282 71.8623 221.826V221.824L156.571 136.978L184.813 165.271L85.5638 221.755C82.818 223.314 80.2162 224.053 77.9037 224.053Z" fill="url(#paint2_linear_1325_7615)"/>
<path d="M156.571 136.979L71.8535 52.128C73.4639 50.6752 75.5261 49.9048 77.8897 49.9048C80.2083 49.9048 82.8123 50.6456 85.5636 52.208L184.81 108.691L156.57 136.979" fill="url(#paint3_linear_1325_7615)"/>
<path d="M77.9065 225.056C75.5402 225.056 73.4724 224.282 71.862 222.827L71.8593 222.83C71.8527 222.823 71.8456 222.817 71.838 222.811L71.3976 222.38C71.3837 222.367 71.3708 222.351 71.3545 222.335L71.8624 221.827C73.4727 223.282 75.5374 224.055 77.9044 224.052C80.2165 224.052 82.8183 223.314 85.5642 221.755L184.813 165.272L185.449 165.909L184.805 166.275L85.5639 222.755C83.0615 224.176 80.6813 224.917 78.5314 225.04C78.3232 225.05 78.1149 225.055 77.9065 225.055" fill="url(#paint4_linear_1325_7615)"/>
<path d="M71.3539 222.336C69.3643 220.228 68.1895 216.956 68.1895 212.713V211.715C68.1895 215.955 69.3643 219.229 71.3539 221.338L71.8618 221.825L71.3539 222.336Z" fill="url(#paint5_linear_1325_7615)"/>
<path d="M185.448 165.909L184.812 165.272L218.904 145.868C223.234 143.405 225.664 140.226 226.071 136.989C226.071 138.177 225.806 139.365 225.28 140.521C224.22 142.851 222.094 145.053 218.904 146.869L185.448 165.909" fill="url(#paint6_linear_1325_7615)"/>
<path d="M226.071 136.977C225.665 133.731 223.234 130.556 218.905 128.092L184.811 108.691L185.446 108.054H185.449L218.905 127.094C223.678 129.812 226.069 133.394 226.071 136.977Z" fill="url(#paint7_linear_1325_7615)"/>
<path d="M68.1895 62.251V61.2045C68.1895 60.8271 68.1996 60.4581 68.219 60.0998V60.0835C68.219 60.0786 68.219 60.0733 68.2208 60.0678V60.0275C68.4268 56.3755 69.5591 53.5268 71.3539 51.6246L71.8538 52.1273C69.5591 54.2012 68.1895 57.6599 68.1895 62.251Z" fill="url(#paint8_linear_1325_7615)"/>
<path d="M184.811 108.69L85.5642 52.2069C82.8128 50.6448 80.2092 49.904 77.8905 49.904C75.5267 49.904 73.4644 50.6744 71.8544 52.1272L71.3545 51.6242C71.5106 51.4587 71.6728 51.2991 71.8408 51.1456C71.846 51.1401 71.8544 51.1345 71.8596 51.1293C73.457 49.6876 75.4974 48.9172 77.84 48.9033H77.8905C80.2092 48.9033 82.8128 49.6445 85.5642 51.2072L185.449 108.051L185.447 108.053L184.811 108.69Z" fill="url(#paint9_linear_1325_7615)"/>
<defs>
<linearGradient id="paint0_linear_1325_7615" x1="122.329" y1="59.65" x2="49.3217" y2="132.774" gradientUnits="userSpaceOnUse">
<stop stop-color="#00A0FF"/>
<stop offset="0.00657" stop-color="#00A1FF"/>
<stop offset="0.2601" stop-color="#00BEFF"/>
<stop offset="0.5122" stop-color="#00D2FF"/>
<stop offset="0.7604" stop-color="#00DFFF"/>
<stop offset="1" stop-color="#00E3FF"/>
</linearGradient>
<linearGradient id="paint1_linear_1325_7615" x1="231.346" y1="136.489" x2="65.8967" y2="136.489" gradientUnits="userSpaceOnUse">
<stop stop-color="#FFE000"/>
<stop offset="0.4087" stop-color="#FFBD00"/>
<stop offset="0.7754" stop-color="#FFA500"/>
<stop offset="1" stop-color="#FF9C00"/>
</linearGradient>
<linearGradient id="paint2_linear_1325_7615" x1="169.819" y1="163.878" x2="46.1035" y2="286.888" gradientUnits="userSpaceOnUse">
<stop stop-color="#FF3A44"/>
<stop offset="1" stop-color="#C31162"/>
</linearGradient>
<linearGradient id="paint3_linear_1325_7615" x1="50.0196" y1="39.5484" x2="105.157" y2="94.4553" gradientUnits="userSpaceOnUse">
<stop stop-color="#32A071"/>
<stop offset="0.0685" stop-color="#2DA771"/>
<stop offset="0.4762" stop-color="#15CF74"/>
<stop offset="0.8009" stop-color="#06E775"/>
<stop offset="1" stop-color="#00F076"/>
</linearGradient>
<linearGradient id="paint4_linear_1325_7615" x1="169.758" y1="183.504" x2="70.68" y2="282.742" gradientUnits="userSpaceOnUse">
<stop stop-color="#CC2E36"/>
<stop offset="1" stop-color="#9C0E4E"/>
</linearGradient>
<linearGradient id="paint5_linear_1325_7615" x1="79.475" y1="59.6496" x2="15.157" y2="124.072" gradientUnits="userSpaceOnUse">
<stop stop-color="#008DE0"/>
<stop offset="0.00657" stop-color="#008DE0"/>
<stop offset="0.2601" stop-color="#00A7E0"/>
<stop offset="0.5122" stop-color="#00B8E0"/>
<stop offset="0.7604" stop-color="#00C4E0"/>
<stop offset="1" stop-color="#00C7E0"/>
</linearGradient>
<linearGradient id="paint6_linear_1325_7615" x1="231.346" y1="136.983" x2="65.8961" y2="136.983" gradientUnits="userSpaceOnUse">
<stop stop-color="#E0C500"/>
<stop offset="0.4087" stop-color="#E0A600"/>
<stop offset="0.7754" stop-color="#E09100"/>
<stop offset="1" stop-color="#E08900"/>
</linearGradient>
<linearGradient id="paint7_linear_1325_7615" x1="231.347" y1="136.983" x2="65.8974" y2="136.983" gradientUnits="userSpaceOnUse">
<stop stop-color="#FFE840"/>
<stop offset="0.4087" stop-color="#FFCE40"/>
<stop offset="0.7754" stop-color="#FFBC40"/>
<stop offset="1" stop-color="#FFB540"/>
</linearGradient>
<linearGradient id="paint8_linear_1325_7615" x1="79.4052" y1="59.7662" x2="17.4556" y2="119.128" gradientUnits="userSpaceOnUse">
<stop stop-color="#40B8FF"/>
<stop offset="0.00657" stop-color="#40B9FF"/>
<stop offset="0.2601" stop-color="#40CEFF"/>
<stop offset="0.5122" stop-color="#40DDFF"/>
<stop offset="0.7604" stop-color="#40E7FF"/>
<stop offset="1" stop-color="#40EAFF"/>
</linearGradient>
<linearGradient id="paint9_linear_1325_7615" x1="49.8967" y1="57.492" x2="94.1392" y2="101.806" gradientUnits="userSpaceOnUse">
<stop stop-color="#65B895"/>
<stop offset="0.0685" stop-color="#62BD95"/>
<stop offset="0.4762" stop-color="#50DB97"/>
<stop offset="0.8009" stop-color="#44ED98"/>
<stop offset="1" stop-color="#40F498"/>
</linearGradient>
</defs>
</svg>
