<svg width="2548" height="1440" viewBox="0 0 2548 1440" fill="none" xmlns="http://www.w3.org/2000/svg">
<g clip-path="url(#clip0_98_2268)">
<path d="M518 1379C508 1347.4 525.833 1325.17 536 1318C562.499 1297.5 609.5 1318 627.5 1343.5C645.5 1369 634 1409 604.5 1421.5C575 1434 530.5 1418.5 518 1379ZM904.5 1315.5C892.5 1351.1 892.833 1413.33 894.5 1440H1294C1294 1429.83 1291.6 1401.7 1282 1370.5C1270 1331.5 1250.08 1296.74 1214 1270C1158 1228.5 1067 1227 1013 1233C948.38 1240.18 919.5 1271 904.5 1315.5ZM1488.5 1309C1502.1 1342.2 1540.5 1410.17 1558 1440H1981.5C1991.33 1418.67 2011.4 1361.9 2013 1305.5C2015 1235 2009 1137 1961 1095C1913 1053 1773.5 1080.69 1683 1105C1601 1127.03 1536.5 1154.5 1501 1192C1467.94 1226.92 1471.5 1267.5 1488.5 1309ZM2112 1440.5C2119.33 1436 2139.2 1429.7 2160 1440.5H2112Z" fill="black" fill-opacity="0.7"/>
</g>
<defs>
<clipPath id="clip0_98_2268">
<rect width="2560" height="1440" fill="white" transform="translate(-12)"/>
</clipPath>
</defs>
</svg>
