<svg width="2560" height="1440" viewBox="0 0 2560 1440" fill="none" xmlns="http://www.w3.org/2000/svg">
<g clip-path="url(#clip0_98_2495)">
<path d="M527.501 1366C500.701 1332 509.936 1297.5 521.001 1283.5C545.501 1252.5 600.501 1263 635.001 1301C669.501 1339 645.418 1377.19 629.501 1388.5C610.501 1402 561.001 1408.5 527.501 1366ZM862.001 1311.5C860.801 1352.7 870.834 1414.33 876.001 1440H1338.5C1339.5 1407 1340 1371.5 1300 1294C1260 1216.5 1189 1207 1168.5 1204C1148 1201 1104.5 1195.5 1038.5 1187.5C972.501 1179.5 932.001 1181.5 904.501 1200C877.001 1218.5 863.501 1260 862.001 1311.5ZM754.001 1414C716.801 1413.6 677.834 1431.83 663.001 1441H853.001C833.001 1429.5 800.501 1414.5 754.001 1414ZM1475 1331C1491.8 1357.4 1527.33 1415.33 1543 1441H2014C2034.8 1413 2049.33 1372 2054 1355C2107 1191 2067 1057 2034 1009C2001 961 1949 982 1912 997C1875 1012 1830 1010 1752 997C1674 984 1662.48 995.373 1620 1024C1580 1050.96 1514 1099 1465 1158C1399.44 1236.94 1454 1298 1475 1331ZM2143 1385.5C2102.2 1387.5 2084 1423.33 2080 1441H2217.5C2213.5 1422.5 2194 1383 2143 1385.5Z" fill="black" fill-opacity="0.7"/>
<path d="M1551.5 1364.5C1470 1395 1443.5 1421.67 1421.5 1440.5H1958C1935.33 1422.83 1873.6 1382.9 1808 1364.5C1726 1341.5 1633 1334 1551.5 1364.5Z" fill="black" fill-opacity="0.7"/>
</g>
<defs>
<clipPath id="clip0_98_2495">
<rect width="2560" height="1440" fill="white"/>
</clipPath>
</defs>
</svg>
