<svg width="2560" height="1440" viewBox="0 0 2560 1440" fill="none" xmlns="http://www.w3.org/2000/svg">
<g clip-path="url(#clip0_98_2668)">
<path d="M508.5 1329.5C491.7 1299.1 502.5 1266 516 1256.5C556.5 1217.5 616 1256.5 637.5 1285.5C651.216 1304 668.5 1359.5 620 1379.5C571.5 1399.5 529.5 1367.5 508.5 1329.5ZM836.5 1282.5C834.9 1324.9 852.833 1405.17 862 1440H1352C1353.5 1428.5 1353.19 1415.44 1352 1403C1348 1361 1334.53 1319.5 1310.5 1274C1273 1203 1210 1193.5 1172 1188L1169.75 1187.67C1131.57 1182.15 1070.32 1173.29 1011 1162.5C950.5 1151.5 910 1153 882.5 1170C855 1187 838.5 1229.5 836.5 1282.5Z" fill="black" fill-opacity="0.7"/>
<path d="M740.5 1382.5C681.7 1385.3 633 1422 616 1440H900C864 1407 814 1379 740.5 1382.5ZM1454 1325.5C1465.6 1343.5 1510.83 1409.33 1532 1440L2032.5 1440.5C2064.5 1398.5 2106.5 1261.5 2105.5 1139C2104.5 1016.5 2050.5 909.5 2018.5 902C1986.5 894.5 1927.5 942.5 1869 957C1810.5 971.5 1760.5 953 1732 920.5C1689.73 872.296 1679.5 874 1663.5 877C1647.5 880 1634.73 908.595 1623.5 932C1611.5 957 1599 977 1554 1028.5C1509 1080 1463 1115 1429 1176C1395 1237 1439.5 1303 1454 1325.5Z" fill="black" fill-opacity="0.7"/>
<path d="M1433 1358.46C1389 1387 1363 1413 1350 1440.46H2027.5C2020.7 1433.26 1999 1414.13 1989 1405.46C1936 1362.46 1856 1310.46 1736 1299.46C1616 1288.46 1493.24 1319.39 1433 1358.46ZM2108 1373C2078.8 1391 2072.17 1425.17 2072.5 1440H2225C2226.2 1419.2 2216 1400 2211.5 1394.5C2191.5 1366.5 2144.5 1350.5 2108 1373Z" fill="black" fill-opacity="0.7"/>
</g>
<defs>
<clipPath id="clip0_98_2668">
<rect width="2560" height="1440" fill="white"/>
</clipPath>
</defs>
</svg>
