<svg width="2560" height="1440" viewBox="0 0 2560 1440" fill="none" xmlns="http://www.w3.org/2000/svg">
<g clip-path="url(#clip0_98_2254)">
<path d="M707 1290C608.6 1299.6 548.667 1394 531 1440H985C935 1320 830 1278 707 1290Z" fill="black" fill-opacity="0.7"/>
<path d="M509 1314.5C456.2 1262.1 473 1211.67 488 1193C512.5 1169 567.566 1167.21 620.5 1215C672 1261.5 650.326 1312 643 1322.5C628.349 1343.5 575 1380 509 1314.5ZM764 1199C752.8 1259.8 800.667 1385 826 1440L1384.5 1439.5C1400 1396 1396 1363.17 1393 1342C1369 1225 1299 1167 1186 1147C1073 1127 1071 1124 944 1090C817 1056 778 1123 764 1199Z" fill="black" fill-opacity="0.7"/>
<path d="M1554 1175C1404.5 1205 1320.5 1261.5 1270.5 1308C1230.5 1345.2 1198.17 1411.5 1187 1440H2188C2166 1392 2134 1308 2037 1214C1920.78 1101.38 1706.67 1144.36 1557.3 1174.34L1554 1175Z" fill="black" fill-opacity="0.7"/>
<path d="M1403.5 752.5C1367.9 725.3 1381.33 670.833 1392.5 647C1439 569 1532 603 1570 647C1619.23 704 1687 725.151 1764 735C1825 742.802 1905 732 1987 704C2069 676 2121 723 2138 792C2155 861 2186 1038 2179 1142C2171.53 1253 2109 1382 2066.5 1441H1499.5C1498.17 1438.33 1480.3 1414.5 1419.5 1340.5C1343.5 1248 1361.5 1164 1428 1056C1494.5 948 1537 880.5 1520.5 829.5C1504 778.5 1448 786.5 1403.5 752.5Z" fill="black" fill-opacity="0.7"/>
<path d="M2084.93 1313.5C2044.13 1360.3 2064.6 1417.67 2079.93 1440.5H2221.93C2249.93 1411.3 2244.93 1364.33 2238.93 1344.5C2215.43 1277 2135.93 1255 2084.93 1313.5Z" fill="black" fill-opacity="0.7"/>
</g>
<defs>
<clipPath id="clip0_98_2254">
<rect width="2560" height="1440" fill="white"/>
</clipPath>
</defs>
</svg>
