<svg width="2560" height="1439" viewBox="0 0 2560 1439" fill="none" xmlns="http://www.w3.org/2000/svg">
<g clip-path="url(#clip0_98_2472)">
<path d="M1364 693C1364 650 1395.33 616.333 1414 601.5C1464 564.5 1537.5 580 1588.5 627.5C1639.5 675 1756.5 750 1933 686C2109.5 622 2154 738 2169 805C2182.88 867 2211 1049 2192 1172C2176.8 1270.4 2107.67 1392 2075 1440.5H1487C1462.67 1414 1391 1349 1364 1289C1328.39 1209.86 1380.5 1073 1453.5 960C1526.5 847 1472.5 826 1427 798C1381.5 770 1364 740.381 1364 693ZM486.5 1282C448.9 1227.2 467.5 1184.83 481.5 1170.5C501 1148.5 557.5 1149.5 610 1190C662.5 1230.5 662.698 1276.5 639.5 1311C616.302 1345.5 533.5 1350.5 486.5 1282Z" fill="black" fill-opacity="0.7"/>
<path d="M589.5 1306C541.5 1343.6 516.5 1411.33 510 1440.5H1011C1004 1408.5 964 1332 884.5 1287C767.348 1220.69 649.5 1259 589.5 1306Z" fill="black" fill-opacity="0.7"/>
<path d="M744 1229C745.2 1283.8 794.833 1392.83 819.5 1440.5L1394 1440C1407.2 1403.2 1404.84 1368.07 1404 1358.5C1394 1244.5 1331 1183.5 1274.5 1153.5C1218 1123.5 1173 1149 1057.5 1107C965.1 1073.4 902.667 1062.67 883 1061.5C748.5 1060.5 742.5 1160.5 744 1229ZM2055 1338.5C2041.4 1387.3 2071.33 1426.83 2088 1440.5H2208.5C2234.1 1421.7 2244.5 1385.67 2246.5 1370C2252.5 1299.5 2201.5 1257 2163 1253C2124.5 1249 2072 1277.5 2055 1338.5Z" fill="black" fill-opacity="0.7"/>
<path d="M1235 1290C1184 1329.29 1150.67 1405.33 1141 1440L2238 1442C2233 1430.67 2205.6 1379.2 2136 1264C2049 1120 2001 1066 1761 1088C1521 1110 1357 1196 1235 1290ZM827.5 1402.5C740.7 1401.7 654.333 1427.17 622 1440H1038C1004 1427.83 914.3 1403.3 827.5 1402.5Z" fill="black" fill-opacity="0.7"/>
</g>
<defs>
<clipPath id="clip0_98_2472">
<rect width="2560" height="1440" fill="white"/>
</clipPath>
</defs>
</svg>
