<svg width="2560" height="1440" viewBox="0 0 2560 1440" fill="none" xmlns="http://www.w3.org/2000/svg">
<g clip-path="url(#clip0_98_2281)">
<path d="M484 1313C349 1308 299 1411 280 1440.04H720C674 1381 605.605 1317.5 484 1313Z" fill="black" fill-opacity="0.7"/>
<path d="M507 1178C420.16 1234.63 429.451 1382.87 424 1440H1130C1113.08 1306.92 1055 1182.82 879 1154C717.161 1127.5 584.818 1127.26 507 1178Z" fill="black" fill-opacity="0.7"/>
<path d="M441.121 1206.13C401.872 1147.79 431.935 1091.21 449 1074C486.863 1041 536.043 1069.23 589.37 1105C669.999 1159.09 676.462 1240 629 1273C567 1316.11 490.182 1279.04 441.121 1206.13Z" fill="black" fill-opacity="0.7"/>
<path d="M642 1228C661 1310 713 1397 741.618 1440H1469.02C1492.59 1403.47 1490.64 1320 1461.72 1265.24C1403.51 1155 1339.04 1094.86 1215 1078C1090.96 1061.14 1036.93 1022.85 901 974C722.931 910.002 694.115 962.864 661 1014C627.885 1065.14 623.111 1146.48 642 1228Z" fill="black" fill-opacity="0.7"/>
<path d="M941.5 1281C924.5 1319.5 911 1397 911 1439.27L2457 1440.27C2432.36 1365.37 2412 1299 2374 1224C2330 1127 2268.12 1051.09 2220 956C2178 873 2172 793 2138 744C2104 695 2064.35 679.929 1997 691C1851 715 1865 737 1747 715C1629 693 1585 591 1482 591C1434.73 591 1375.46 615.216 1370 684C1365 747 1447 806 1482 859C1517 912 1443 1007.96 1423 1027C1340 1106 1273.78 1149.28 1139 1184C1007 1218 968.525 1219.8 941.5 1281Z" fill="black" fill-opacity="0.7"/>
<path d="M1289.12 1161.34C1248.3 1274.03 1354.43 1394.07 1412.59 1440H2165C2213.3 1377.05 2319.63 1205.73 2305 1035C2281 755 2224 633.782 2127 580C2026 524 1931 588.724 1807 600C1705.97 609.187 1647.84 534.935 1556 510C1484.57 490.606 1362.38 527.248 1321.56 624.218C1280.74 721.188 1322.55 816.797 1345 876C1367.45 935.203 1340.14 1020.48 1289.12 1161.34Z" fill="black" fill-opacity="0.7"/>
<path d="M2068 1193C2104.74 1144.63 2167 1134 2212 1152C2301.05 1203.5 2281.75 1298.1 2273.91 1321.61C2266.07 1345.12 2209.37 1450.85 2108.55 1406.06C2007.74 1361.28 2022.07 1253.46 2068 1193V1193ZM221.084 1438.65L220 1440L1431 1437.68C1291.49 1291.29 1190.35 1243.65 1038.05 1186.73C885.754 1129.8 685 1168.95 515 1210C377.523 1243.19 266.726 1381.62 221.084 1438.65Z" fill="black" fill-opacity="0.7"/>
</g>
<defs>
<clipPath id="clip0_98_2281">
<rect width="2560" height="1440" fill="white"/>
</clipPath>
</defs>
</svg>
