<svg width="2560" height="1440" viewBox="0 0 2560 1440" fill="none" xmlns="http://www.w3.org/2000/svg">
<g clip-path="url(#clip0_98_2569)">
<path d="M454.057 1248C306.282 1248 245.127 1406.96 232 1440H768C689 1304 573.29 1248 454.057 1248Z" fill="black" fill-opacity="0.7"/>
<path d="M469.001 1114.89C378.471 1173.96 381.001 1360 387.001 1440H1129C1124 1237 1156 1174.88 883.228 1114.89C720.001 1079 550.126 1061.96 469.001 1114.89Z" fill="black" fill-opacity="0.7"/>
<path d="M422.5 1175C385.016 1106.62 418.628 1036.1 438.5 1018C482.3 983.578 518.662 1000.44 588.5 1065C674.5 1144.5 691 1227 626.414 1259.64C553.357 1296.55 459.5 1242.5 422.5 1175Z" fill="black" fill-opacity="0.7"/>
<path d="M596.001 1222C615.001 1286 676.431 1390.22 713.001 1440H1500.24C1526.1 1400.02 1518.32 1298 1492.24 1248.71C1435.24 1141 1357.67 1068.45 1221.61 1050C1091 1032.29 940.54 959.491 861.001 913C719.001 830 675.487 866.792 615.001 960C581.003 1012.39 565.719 1120 596.001 1222Z" fill="black" fill-opacity="0.7"/>
<path d="M833 1209C821 1294 838 1377 818 1438.9L2558 1440C2540.19 1356.17 2520.92 1280.73 2479 1198C2430.46 1091.01 2370 1009 2309 901C2258.54 811.658 2246 740 2200 681C2154 622 2090.3 590.789 2016 603C1854.92 629.472 1863.82 655.297 1756.41 635.276C1649 615.256 1608.05 533.761 1469 539C1416.89 540.964 1335.7 586.797 1324 662C1310 752 1366 799 1390 874C1414 949 1355.07 1014 1333 1035C1261.76 1102.79 1176 1146 1017 1109C858 1072 843.317 1135.93 833 1209Z" fill="black" fill-opacity="0.7"/>
<path d="M1255 1168C1217.32 1272 1305 1379 1359 1439.64H2207C2266 1374.64 2374.2 1191.68 2353 1015C2311 665 2239.75 590.852 2139 535C2012 464.592 1946.79 539.29 1818 551C1713.07 560.54 1679 495.956 1563 472C1471 453 1354.07 502.378 1305 600C1246.5 716.386 1285 800 1305 875C1335.93 991 1307.99 1021.72 1255 1168Z" fill="black" fill-opacity="0.7"/>
<path d="M2060.5 1159C2108.32 1099.68 2175 1078 2227.5 1103.5C2325 1160.5 2302.5 1256 2285.5 1296.5C2268.5 1337 2193.61 1424.03 2101 1380.5C2001 1333.5 2008.59 1223.39 2060.5 1159ZM437 1101C273.974 1140.37 136.553 1374.11 92 1440L1564 1437.27C1440 1260 1268 1197.7 1081 1133.93C854.82 1056.8 624 1055.84 437 1101Z" fill="black" fill-opacity="0.7"/>
</g>
<defs>
<clipPath id="clip0_98_2569">
<rect width="2560" height="1440" fill="white"/>
</clipPath>
</defs>
</svg>
