<svg width="2560" height="1440" viewBox="0 0 2560 1440" fill="none" xmlns="http://www.w3.org/2000/svg">
<g clip-path="url(#clip0_98_2478)">
<path d="M1241.35 1161.56C1202.75 1268.16 1292.58 1377.84 1347.9 1440H2223.65C2284.09 1373.37 2394.94 1185.83 2373.22 1004.72C2330.19 645.952 2257.19 569.946 2153.98 512.694C2023.88 440.523 1957.07 517.092 1825.13 529.095C1717.63 538.875 1683.73 472.672 1564.89 448.116C1470.64 428.64 1342.85 479.255 1292.58 579.323C1232.64 698.625 1272.09 784.334 1292.58 861.214C1324.27 980.12 1295.64 1011.61 1241.35 1161.56V1161.56ZM448 1216C283.408 1216 223 1396 210 1440H807C719.009 1288.42 580.802 1216 448 1216Z" fill="black" fill-opacity="0.7"/>
<path d="M455 1076C358.208 1139.23 355.26 1354.36 361.676 1440H1155C1149.65 1222.69 1165.77 1149.86 903 1092C728.483 1053.58 541.736 1019.34 455 1076Z" fill="black" fill-opacity="0.7"/>
<path d="M415.001 1159C382.298 1079.98 417.213 997.852 439.006 978.001C487.038 940.253 519.004 968.073 581.383 1025.74C675.693 1112.92 682.001 1201 622.961 1239.18C547.584 1287.92 439.006 1217 415.001 1159Z" fill="black" fill-opacity="0.7"/>
<path d="M574.016 1225.81C593.9 1292.8 658.19 1387.89 696.461 1440H1520.34C1547.4 1398.15 1539.26 1305.36 1511.96 1253.76C1452.31 1141.02 1366.39 1056.31 1224 1037C1107 1021.13 927.015 948.282 855 882.999C748 786 656.302 838.435 593 935.999C557.42 990.837 542.325 1119.04 574.016 1225.81Z" fill="black" fill-opacity="0.7"/>
<path d="M776.251 1324.6C775.328 1287.4 774.351 1247.99 778.999 1202C779.43 1197.73 779.856 1193.16 780.304 1188.36C788.083 1104.92 802.559 949.657 968.502 1043C1142.48 1140.86 1214.74 1090.36 1280.77 1044.21L1282.5 1043C1308.5 1024.84 1382 956 1350 864.002C1342.46 842.32 1334.4 823.081 1326.88 805.122C1302.48 746.878 1283.71 702.084 1306.5 631.002C1327.5 565.502 1406.03 516.964 1466.5 515.001C1558.97 511.998 1605.61 536.62 1652.33 561.285C1683.42 577.698 1714.55 594.131 1759.24 602.456C1830.02 615.642 1852.3 609.721 1901.63 596.613C1930.25 589.007 1967.98 578.981 2029.57 568.864C2106.95 556.155 2173.28 588.639 2221.19 650.045C2255.16 693.595 2282.17 743.77 2313.75 802.438C2326.7 826.494 2340.42 851.978 2355.7 879.018C2378.68 919.682 2401.59 956.806 2423.86 992.9C2463.15 1056.58 2500.47 1117.06 2532.73 1188.13C2544.76 1211.85 2553.4 1234.99 2560 1257.9V1439.98L772.5 1438.85C778.117 1399.86 777.214 1363.43 776.251 1324.6V1324.6Z" fill="black" fill-opacity="0.7"/>
<path d="M2058.36 1137.47C2108.69 1075.06 2178.87 1052.25 2234.13 1079.08C2336.75 1139.05 2313.07 1239.52 2295.17 1282.12C2277.28 1324.73 2198.46 1416.29 2100.99 1370.49C1995.73 1321.05 2003.72 1205.21 2058.36 1137.47V1137.47ZM409 1036C286.21 1080.8 71 1360 30 1440L1626 1437.04C1491.55 1245.03 1305.07 1177.55 1102.31 1108.47C857.079 1024.93 557 982 409 1036ZM2115 1413.5C2048.2 1407.1 1973.17 1428.83 1944 1440.5H2252C2234.17 1434.17 2181.8 1419.9 2115 1413.5Z" fill="black" fill-opacity="0.7"/>
</g>
<defs>
<clipPath id="clip0_98_2478">
<rect width="2560" height="1440" fill="white"/>
</clipPath>
</defs>
</svg>
