<svg width="2560" height="1440" viewBox="0 0 2560 1440" fill="none" xmlns="http://www.w3.org/2000/svg">
<g clip-path="url(#clip0_98_2588)">
<path d="M445 1152C296 1129 189 1302 176 1440H820C789 1273 576.248 1172.26 445 1152ZM1785.34 1439.46L1785 1439.74H2413C2364 1396 2235.14 1334 2128 1324C1946.58 1307.06 1820.81 1410.33 1785.34 1439.46Z" fill="black" fill-opacity="0.7"/>
<path d="M657 796C520 873 494 1010 506 1126C518 1242 609 1379 665 1440H1541C1557.33 1423 1586 1364 1570 1264C1550 1139 1361 1038 1189 1001C1017 964 891 849 860 813C829 777 794 719 657 796Z" fill="black" fill-opacity="0.7"/>
<path d="M1039 1050C1158 1089 1367 1165 1536 1234C1671.2 1289.2 1733.67 1394.33 1748 1440H-2V1278C24 1237.67 97 1136.2 181 1053C286 949 421 814 495 805C569 796 614 852 672 910C730 968 920 1011 1039 1050Z" fill="black" fill-opacity="0.7"/>
<path d="M392.999 1042C325.571 1135.92 294.999 1284 338.999 1439.84H1175C1234 1135 1166.77 1127.86 903.999 1070C727.965 1031.24 619.326 935.734 522.999 955C462.999 967 420.999 1003 392.999 1042Z" fill="black" fill-opacity="0.7"/>
<path d="M2315 648C2358.2 704 2497.67 910.667 2562 1007V1438H683.999C682.666 1424.67 674.799 1353 677.999 1173C681.999 948 802.999 865 840.999 861C878.999 857 927.999 889 954.999 916C981.999 943 1107 1081 1207 1028C1307 975 1300 922 1264 787C1228 652 1289 563 1350 509C1411 455 1561 442 1643 488C1725 534 1783 543 1831 544C1879 545 1971 488 2076 496C2181 504 2261 578 2315 648Z" fill="black" fill-opacity="0.7"/>
<path d="M2305 580C2407 727 2440 998 2419 1145C2402.31 1261.82 2313.17 1389.62 2270.84 1440H1282C1278 1434 1259.6 1404.4 1218 1334C1166 1246 1197 1180 1245 1049C1293 918 1230 815 1234 701C1238 587 1319 464 1450 416C1581 368 1677 425 1757 451C1837 477 1899 439 1975 425C2051 411 2203 433 2305 580Z" fill="black" fill-opacity="0.7"/>
<path d="M1504.5 776C1489.3 748.4 1503.5 724.833 1512.5 716.5C1524.5 707 1552 698.5 1576.5 726C1601 753.5 1595.5 787.5 1576.5 802C1557.5 816.5 1523.5 810.5 1504.5 776ZM2055.06 1108.93C2108.44 1042.94 2183.79 1002.87 2242.4 1031.24C2345.27 1086.76 2336.86 1202.95 2311.86 1262.29C2286.87 1321.64 2203.65 1403.77 2100.27 1355.34C1984.68 1301.2 1997.11 1180.56 2055.06 1108.93V1108.93ZM403.005 1143.01C354.177 1025.03 415 937 444 910.033C473 883.066 505.981 864.221 530.5 890.497C549.25 910.591 564.223 972.675 590 1006.03C641 1072.03 658.979 1105.45 668 1143.01C675.991 1176.29 661.366 1211.24 630.965 1230.9C548.339 1284.33 429.319 1206.59 403.005 1143.01V1143.01Z" fill="black" fill-opacity="0.7"/>
</g>
<defs>
<clipPath id="clip0_98_2588">
<rect width="2560" height="1440" fill="white"/>
</clipPath>
</defs>
</svg>
