<svg width="2560" height="1440" viewBox="0 0 2560 1440" fill="none" xmlns="http://www.w3.org/2000/svg">
<g clip-path="url(#clip0_98_2615)">
<path d="M442.999 839C290.999 839 8.99902 1159 85.999 1440H922.999C936.999 1241 832.999 1167 687.999 1092C474.999 971 535.999 839 442.999 839ZM1481 1439.74H2561V1229C2415 1083 2208 1001.5 2111.5 1001.5C2007 1001.5 1673 1159 1571 1226C1506 1275 1497 1374 1481 1439.74Z" fill="black" fill-opacity="0.7"/>
<path d="M814.999 532.001C990.999 743.001 880.999 792 1123 916C1187.22 948.905 1280 959 1481 990C1549.73 1000.6 1593.28 898.745 1647 837C1734 737 1940 647 2033 709C2173 802.334 2002 969 2113 1440H-2.00095L-2.00195 690L67.998 624.001C67.998 624.001 263.999 447.001 387.999 426C514.126 404.64 753.992 458.861 814.999 532.001Z" fill="black" fill-opacity="0.7"/>
<path d="M251.498 877.001C141.998 1119.5 192.498 1299 241.498 1439.84H1270C1282.5 1377 1309.75 1226.5 1291 1168C1264.4 1085 1188 1012 965.998 981C797.81 950.131 782.132 868.707 754.998 782C748.438 761.037 747.998 720.202 712.998 698C671.915 671.94 564.38 656.772 467.998 664.001C333.978 674.052 284.677 803.522 251.498 877.001ZM1435 831.5C1403 761.756 1431.17 702 1467 664.001C1516.5 611.5 1603.5 597.5 1672 675.001C1732.1 743 1640.8 862.697 1594 907.5C1535.5 963.5 1475 918.68 1435 831.5ZM2059 989.405C2135.9 891.359 2133.96 714.507 2193.05 725.481C2198.07 726.412 2206.18 727.785 2210.5 730.5C2313.76 795.418 2424.93 1020.5 2358 1147C2297.3 1261.71 2189 1287.22 2100.27 1245.66C1984.68 1191.51 1995.6 1070.24 2059 989.405V989.405Z" fill="black" fill-opacity="0.7"/>
<path d="M373.999 1056C325.597 956.392 330.444 872 366.999 801C417.999 689 609.999 677 660.999 709.001C711.999 741.001 639.499 849 647.999 925C647.999 925 664.803 1012.87 670.999 1051C677.499 1091 661.499 1128.6 625.499 1150.37C549.499 1196.32 412.999 1136.26 373.999 1056Z" fill="black" fill-opacity="0.7"/>
<path d="M957 543C1009 563 1034 568 1115 520C1196 472 1315 430.999 1400 480C1485 529 1406 645 1376 685C1371.63 690.833 1365.57 697.877 1358.68 705.895V705.896C1318.32 752.864 1249.25 833.228 1321 899C1327.18 904.667 1333.12 910.133 1338.84 915.402C1376.01 949.618 1404.15 975.518 1431.33 993.976C1513.39 1044.75 1568.3 1029.85 1608 1010C1654 987 1696.85 927.731 1730 870C1788 769 1899 669 1982 723C2055.51 770.825 2033.35 906.273 1923 1019.5C1865.5 1078.5 1819.5 1135 1782.5 1207C1751.26 1267.8 1742.47 1291.87 1723.04 1345.16L1723.03 1345.17L1723 1345.25C1719.43 1355.04 1715.5 1365.82 1711 1378C1697.71 1413.97 1689 1440 1689 1440H554C477.5 1354.5 395.535 1216 376 1136C351.46 1035.5 307 782 489 728C547.067 707.187 626.839 674.146 675 645.118C707.849 625.319 736.012 603.237 761.232 583.462C802.039 551.467 835.141 525.512 867.924 525.042C868.113 525.026 868.305 525.012 868.5 525C884 525.333 923.4 529.4 957 543Z" fill="black" fill-opacity="0.7"/>
<path d="M1038 1267C1065.2 1328.6 1122 1408.67 1147 1441H2420C2423.67 1437.67 2438.6 1420.8 2469 1380C2499.4 1339.2 2543.67 1250.33 2562 1211V591C2537.33 540.667 2478 427.8 2438 379C2388 318 2283 228 2205 184C2127 140 1975 75.0001 1791 66.0001C1607 57.0001 1414 132 1328 200C1242 268 1156 377 1158 483C1160 589 1126 645 1080 673C1034 701 950 680 869 717C788 754 736 846 733 932C730 1018 856 1098 913 1132C970 1166 1004 1190 1038 1267Z" fill="black" fill-opacity="0.7"/>
<path d="M2177 160.001C2322.12 221.492 2495.33 332.001 2561 387.001V1440.5H355.998C353.165 1410.5 338.599 1325.8 334.999 1219C330.499 1085.5 371.998 950.501 407.498 865.501C442.998 780.501 536.498 750.501 598.998 725.501C661.498 700.501 766.998 638.001 866.998 567.001C966.998 496.001 1076 338.001 1132 280.001C1188 222.001 1245 81.0011 1564 63.0011C1883 45.0011 2000 85.0001 2177 160V160.001Z" fill="black" fill-opacity="0.7"/>
<path d="M1262.5 591C1288.1 564.2 1334.5 554.833 1354.5 553.5C1432 548 1488 621 1452.5 670C1417 719 1309.5 724 1269.5 698C1229.5 672 1230.5 624.5 1262.5 591ZM1488.5 761C1467.7 731.4 1479.83 706.334 1488.5 697.5C1519 664.5 1571.1 708.851 1588 725.001C1610.5 746.5 1642 808.5 1602 829C1562 849.5 1514.5 798 1488.5 761Z" fill="black" fill-opacity="0.7"/>
</g>
<defs>
<clipPath id="clip0_98_2615">
<rect width="2560" height="1440" fill="white"/>
</clipPath>
</defs>
</svg>
