<svg width="2560" height="1440" viewBox="0 0 2560 1440" fill="none" xmlns="http://www.w3.org/2000/svg">
<g clip-path="url(#clip0_98_2625)">
<path d="M57.0005 1440H945C985 1182 913 1146 711 1048C509 933 721 705 479 690C338 690 161.227 891 76.0005 1068C17.8535 1188.76 15.8505 1326.25 57.0005 1440Z" fill="black" fill-opacity="0.7"/>
<path d="M171.5 345C80.5 399.5 25.5 442.5 0 457.5L-3 694H0V1440H2257C2244.33 1383.33 2217.2 1204.2 2206 969C2192 675 2122.67 634.247 2051 601.67C1989.24 573.597 1865.04 608.804 1771 638C1731.05 650.404 1683.52 646.979 1665 638C1632 622 1566 534 1566 534C1531 493 1500 458.049 1436 444C1313 417 1280 433 1119 444C1098.45 449.829 995 444 944.5 407C894 370 831.5 320.501 771.5 284C711.5 247.5 619.5 219 552.5 219C350.5 219 267 296 171.5 345V345Z" fill="black" fill-opacity="0.7"/>
<path d="M296.999 825C278.999 918 295.999 1078 339.999 1192C370.626 1271.35 452.666 1388 496.999 1439H1725C1822 1235 1860 1163 1971 1044C2065.54 942.647 2139 698.999 1994 656.999C1815 600 1709 818 1666 887C1623 956 1531 999.58 1458 966C1370 925.52 1306 835 1405 695C1505 562 1534 533 1491 445C1463 409 1424 361 1317 347C1263 331 1254 301.999 1114 320.999C1059 328.464 1021 347.001 914.999 320.999C840.999 302.847 783.998 289.999 719.999 347C662.999 397.766 712.999 468 694.999 523C660.635 628 528.999 622 440.999 622C326.999 631 310.971 752.811 296.999 825Z" fill="black" fill-opacity="0.7"/>
<path d="M185.999 847C78.5311 1085 131.999 1273 206.499 1439.84H1316C1328.5 1377 1352.72 1239 1329 1165C1298.87 1071 1197 997 1006 957C870.999 919 844.133 895.707 816.999 809C804.168 768 816.999 678 770.999 639C740.999 613.565 670.682 610.273 601.999 599.001C546.251 589.851 482.24 568.493 430.999 576C273.999 599.001 219.178 773.521 185.999 847V847ZM1413.5 847.501C1378.32 770.825 1413.85 697.076 1453.24 655.3C1507.66 597.581 1593.5 551 1701 649C1778.5 725 1664.81 870.434 1600.5 932C1536.19 993.566 1457.47 943.346 1413.5 847.501ZM2061 946.263C2143.9 827.263 2068 671.4 2144 641C2189 623 2231 658.999 2231 658.999C2327.5 734 2455 971.992 2372 1114C2308.29 1223 2178.03 1246.55 2100.26 1202.95C1992 1142.26 1996.91 1038.26 2061 946.263V946.263Z" fill="black" fill-opacity="0.7"/>
<path d="M376.803 1026.36C321 924.741 315.599 834.223 355 753.742C380.375 701.913 406.705 673.897 500.654 666.507C518.786 665.08 536.921 662.868 554.812 659.593C624.542 646.828 680.226 647.227 698 665C763 721.5 679 807 673.803 897.5C673.803 897.5 670 955.5 673.803 1021.36C673.803 1059.5 664.303 1098.97 628.303 1120.73C552.303 1166.69 425.478 1115 376.803 1026.36V1026.36ZM2390 967C2446 996.6 2527.33 1054 2561 1079V1440H1417C1412.33 1388.67 1412 1270.8 1448 1210C1493 1134 1541 1064 1543 1011C1545 958 1453 840 1426 782C1399 724 1410 651 1486 625C1562 599 1659 667 1699 720C1739 773 1717 853 1728 927C1739 1001 1834 996 1894 974C1954 952 2029 859 2076 814C2123 769 2159 794 2188 821C2217 848 2320 930 2390 967Z" fill="black" fill-opacity="0.7"/>
<path d="M1541 1175C1684 1151 1860 1130 1923 1166C2028 1226 2139 1387 2181 1440H1007C1033.67 1405.33 1112.2 1308.4 1173 1278C1249 1240 1347 1207.56 1541 1175Z" fill="black" fill-opacity="0.7"/>
<path d="M1410 0C1223 80 1161.32 150.801 1105.47 259.012C1097.74 271.795 1090.39 283.513 1083.5 294.5C1041.32 361.729 1030 386 1030 491.5C1013.5 583.5 974.001 595.5 908.001 634.5C831.501 669.5 791.501 717 725.501 816C662.501 926 684.001 997.5 751.001 1077.5C769.999 1100.18 813.82 1142.77 854.813 1171.73C880.683 1190.01 904.233 1206.65 917.001 1218C944.001 1242 959.456 1249 993.001 1321.5C1033.95 1410 1063 1423.5 1105.54 1440.5H2486.5C2489.17 1437.67 2498.1 1427.4 2512.5 1409C2526.9 1390.6 2550.83 1356 2561 1341V349C2529 300 2458.5 214.311 2369 135.999C2317 90.5 2262.5 46.5 2152.5 0H1410Z" fill="black" fill-opacity="0.7"/>
<path d="M2322 82C2493 171 2510 193 2560 230V1439H227.501C221.501 1386.33 210.701 1246 215.501 1106C221.501 931 283.001 695.5 371.001 632.5C459.001 569.5 520.001 653.5 659.001 593.5C769.501 527 679.027 425.5 710.501 321.5C733.501 245.5 844.001 204 908.001 121C948.001 83 991.914 44.115 1075.5 0H2112C2167 14 2202 27 2322 82Z" fill="black" fill-opacity="0.7"/>
</g>
<defs>
<clipPath id="clip0_98_2625">
<rect width="2560" height="1440" fill="white"/>
</clipPath>
</defs>
</svg>
