<svg width="2560" height="1440" viewBox="0 0 2560 1440" fill="none" xmlns="http://www.w3.org/2000/svg">
<g clip-path="url(#clip0_98_2559)">
<path d="M44.9998 1440H953.5C1012 1157.5 956 1152.5 740.5 1048C613.924 975.939 648 859.5 630 737C612.5 692.5 560.859 665.101 470.5 659.5C329.5 659.5 134.5 881.5 55.4998 1059.5C1.12781 1182.01 3.84881 1326.25 44.9998 1440Z" fill="black" fill-opacity="0.7"/>
<path d="M116.5 309.5C25.5 363.999 0 383.5 0 383.5L-3 694H0V1440H2305C2292.33 1383.33 2264.5 1172.5 2239.5 940.5C2208.2 650 2137.67 604.576 2066 572C1987.5 536.318 1894.42 590.584 1796.5 601C1726 608.5 1695.02 589.478 1676.5 580.5C1643.5 564.5 1589 492 1589 492C1554 451 1485 403.549 1421 389.5C1366.82 377.606 1327.58 383.453 1298.5 379C1240.5 370.118 1237.04 358.857 1175.5 355.5C1081 350.346 1016.07 365.5 941 310.5C865.932 255.5 829.5 192.499 709.5 163.5C589.5 134.5 457.5 163.5 410 177C257.5 220.342 207.5 255 116.5 309.5Z" fill="black" fill-opacity="0.7"/>
<path d="M278 825C271.17 919.48 282 1078 326 1192C356.627 1271.35 433.667 1388 478 1439H1744C1841 1235 1891 1164 1981 1055C2090.71 922.133 2148 680 2003 638C1824.41 581.132 1714.51 772.118 1653.42 878.267L1653 879C1610 948 1510 980.515 1463 955C1393 917 1317 839 1416 699C1520 578 1563 517 1520 429C1501.92 392 1468 340.372 1393 302C1350 280 1331 184 1191 203C1136 210.464 1011.19 260.973 832 242C747 233 636 288 628 343C612.582 449 669 462 653 526C644.312 560.751 608 586.895 560 583.332C528 580.956 465.733 549.258 431 552C317 561 284 742 278 825Z" fill="black" fill-opacity="0.7"/>
<path d="M159 847C72.0001 1056.5 118 1273 192.5 1439.84H1326C1338.5 1377 1365.72 1239 1342 1165C1311.87 1071 1236 1008 1024 950.5C909 909 862.634 903.207 835.5 816.5C822.669 775.5 851 678 791 621C748.291 580.426 715.876 585.583 631.927 576.563C619.995 575.281 608.21 572.66 596.719 569.197C500.355 540.15 459.941 537.404 411.5 544.5C254.5 567.501 192.179 773.521 159 847ZM1410.65 852.047C1374.84 774.009 1411.01 698.95 1451.09 656.432C1508 588 1601.59 542.259 1711 642C1794.5 721 1666.43 875.388 1600.97 938.048C1535.51 1000.71 1455.4 949.595 1410.65 852.047ZM2061 936.304C2143.9 817.304 2051.81 658.084 2124 619.5C2182 588.501 2245.5 643.5 2245.5 643.5C2342 718.501 2458.82 955.5 2372 1104.04C2308.29 1213.04 2178.03 1236.59 2100.26 1193C1992 1132.3 1996.91 1028.3 2061 936.304Z" fill="black" fill-opacity="0.7"/>
<path d="M376.803 1026.36C328.5 943 306.5 842.499 340.5 753.742C365.3 688.999 408.5 649.999 481 649.999C504.071 649.999 531.5 656.499 570.5 647.499C639.573 631.559 692.726 634.226 710.5 652C775.5 708.499 679 807 673.803 897.5C673.803 897.5 670 955.5 673.803 1021.36C673.803 1059.5 664.303 1098.97 628.303 1120.73C552.303 1166.69 416.061 1094.12 376.803 1026.36V1026.36ZM2390 920C2446 949.6 2527.33 1007 2561 1032V1440H1359.5C1381.5 1337.5 1355.07 1294 1418.5 1204.5C1491.5 1101.5 1502 1072 1504 1019C1506.55 951.5 1439.5 848 1412.5 790C1385.5 732 1397.66 639.844 1473 612C1565 578 1661.09 646.559 1706.5 695C1774 766.999 1758 802.999 1762.5 862C1768.19 936.596 1817 959 1874 939C1953.55 911.086 1980.26 839.643 2018.5 787C2061 728.5 2117.5 685.5 2195 748.5C2225.75 773.493 2320 883 2390 920Z" fill="black" fill-opacity="0.7"/>
<path d="M1508.11 1152.21C1650.99 1115.24 1842.74 1065.63 1936.5 1115.5C2074 1181.5 2180 1376.5 2221 1440H973C1011 1360.5 1058.5 1293 1137.5 1261.5C1213.5 1223.5 1316.56 1201.77 1507 1152.5L1508.11 1152.21Z" fill="black" fill-opacity="0.7"/>
<path d="M1307 0C1307 0 1242.07 26 1154.5 109.5C1111.5 150.5 1057.89 253.013 1051 264C1002.38 341.5 980 386 980 491.5C961 572.5 931 589.525 897 617.5C818 682.5 777 711.5 711 810.5C648 920.5 664 997.5 731 1077.5C749.998 1100.18 793.819 1142.77 834.812 1171.73C860.682 1190.01 884.232 1206.65 897 1218C924 1242 939.455 1249 973 1321.5C1013.95 1410 1043 1423.5 1085.54 1440.5H2504.5C2504.5 1440.5 2537 1417 2561 1369.5V278C2534.5 239.5 2499.5 189.812 2410 111.5C2382 87 2325.5 39 2255 0H1307Z" fill="black" fill-opacity="0.7"/>
<path d="M2431.5 0C2515.5 49 2510 45 2560 82V1439H177.999C167.999 1361 165.999 1184 177.999 1054C188.06 945 222.999 674 352.499 558C481.999 442 549.999 582 614.499 544C689.499 483 579.275 433.664 599.999 327C616.999 239.5 698.999 187.654 779.499 121.5C829.999 80 870.999 42.5 945.999 0H2431.5Z" fill="black" fill-opacity="0.7"/>
</g>
<defs>
<clipPath id="clip0_98_2559">
<rect width="2560" height="1440" fill="white"/>
</clipPath>
</defs>
</svg>
