<svg width="2560" height="1440" viewBox="0 0 2560 1440" fill="none" xmlns="http://www.w3.org/2000/svg">
<g clip-path="url(#clip0_98_2234)">
<path d="M22.0001 1440H976C993.5 1345 1069.5 1200 1053 1146.5C1043.4 1115.36 992.5 1114.5 916.5 1088C869.5 1069 825.279 1047.95 778.5 1024C661 963.84 697.5 840 697.5 738.5C697.5 670 651 642.5 639 633C561.5 584.5 478.5 576.077 418 584.5C260 606.5 84.0001 839 20.0001 976.653C12.0461 994.573 5.46708 1013.26 0.205078 1032.5V1377.5C0.205078 1377.5 6.00008 1410 22.0001 1440Z" fill="black" fill-opacity="0.7"/>
<path d="M1857 458C1707.54 496.99 1734.15 330 1683 236C1622.84 125.44 1460.8 47.1531 1259.26 0.00708008H393C215.585 51.7221 69.99 128.674 -1 176V1440H2447C2439.67 1362 2407 1124 2325 822.001C2216.5 422.404 1995 422 1857 458Z" fill="black" fill-opacity="0.7"/>
<path d="M1991 1116C1940.5 1174.5 1888.5 1270.5 1864.5 1317.5C1845.3 1355.1 1798.5 1415.5 1777.5 1441H441C388.5 1382.5 305.5 1261.5 263.001 1161.5C203.002 1020.32 196.597 826.122 218.501 679C248.5 477.5 410.501 281 546.001 175.5C654.401 91.1 842.834 23.667 923.5 0.5H1287C1342.17 21 1470.8 71.3 1544 108.5C1635.5 155 1647.5 242.5 1636.5 284.5C1625.5 326.5 1624 375 1626.5 426.5L1626.56 427.742C1629.05 478.891 1631.72 533.817 1596.5 573C1561 612.5 1481 664.5 1439 727.5C1397 790.5 1393 853 1448 902.5C1503 952 1557 915.5 1610 864C1663 812.5 1704.5 692 1740 652.5C1775.5 613 1911.5 544.5 2011 573C2110.5 601.5 2135.5 725 2133 823C2130.5 921 2041.5 1057.5 1991 1116Z" fill="black" fill-opacity="0.7"/>
<path d="M82 877.999C19 1124 92 1318 162 1439.84H1361C1373.5 1377 1396.72 1238 1373 1164C1342.87 1070 1281 1001.83 1057 921C942 879.5 907 866.5 894 807.5C878.797 738.5 914.5 643.5 845 546C775.5 448.5 693.95 461.519 610 452.499C573.001 449.518 514 435.999 459.5 432.999C415.9 430.599 365 454.333 345 466.5C160 561.499 102 815.999 82 877.999ZM1404.09 860.762C1369.59 750.262 1371.75 717.243 1421 655C1502.5 552 1600.06 517.999 1751 618C1860.94 698.092 1667.49 883.265 1601.06 946.85L1600.06 947.81C1517.59 1021.26 1441.44 962.715 1404.09 860.762ZM2057 891.708C2144.5 725.708 1973 628.9 2072 569.5C2125.36 537.486 2196.45 559.541 2234.09 575.525C2251.73 583.02 2267.49 594.104 2281.27 607.428C2402.9 724.996 2476.12 912.447 2384.5 1069.21C2320.79 1178.21 2178.03 1196.31 2100.26 1152.72C1992 1092.03 2011.5 964 2057 891.708Z" fill="black" fill-opacity="0.7"/>
<path d="M376.804 994.184C323.501 916.499 294.3 796.504 313.001 713.999C330.001 639 381.001 584 453.501 584C507.501 584 538.501 617 577.501 608C646.574 592.06 703.501 574.68 735.001 601C816.048 668.718 712.001 764 691.001 864C691.001 864 670.001 923.32 673.804 989.184C673.804 1027.32 664.304 1066.79 628.304 1088.55C552.304 1134.51 430.107 1071.87 376.804 994.184ZM2368.5 757.501C2416.1 800.701 2517 864.834 2561.5 891.5V1441H1285.5C1283.17 1421.33 1279.9 1368.5 1285.5 1314.5C1294.57 1227 1398.5 1142.5 1421 1064.5C1447.41 972.959 1343.5 863 1356 706.5C1363.52 612.288 1474.5 557 1552 558.5C1629.5 560 1763.5 647.5 1830 664.5C1896.5 681.5 1959.5 636.001 2073.5 601.001C2187.5 566.001 2309 703.501 2368.5 757.501Z" fill="black" fill-opacity="0.7"/>
<path d="M913.5 1313.5C905.1 1339.9 878.333 1408.5 866 1439.5L2325.5 1440.5C2306.83 1401.17 2262.5 1309.3 2234.5 1256.5C2199.5 1190.5 2080.5 1020 2025.5 962C1970.5 904 1915 942.5 1864.5 949.5C1814.64 956.411 1769.17 938.953 1720.38 920.223L1718.5 919.5C1669 900.5 1652.5 942.5 1602 996C1551.5 1049.5 1427 1110 1303 1153C1179 1196 1127.5 1197.5 1038.5 1209C949.5 1220.5 924 1280.5 913.5 1313.5Z" fill="black" fill-opacity="0.7"/>
<path d="M1090 0C1090 0 1044.5 33.5 982.999 121.5C957.036 158.651 907.82 237.291 881.499 282.5C838.999 355.5 885.16 412.592 873.999 517.5C868.999 564.5 850.645 596.5 819.499 631C777.52 677.5 710 745 660.499 820C597.499 930 624.499 1043 696 1119C726.5 1149 784.999 1209.5 820.999 1241.5C847.332 1266.67 905.299 1324.1 926.499 1352.5C947.699 1380.9 965.795 1423.33 972.192 1441L2485.81 1440.5H2529.81C2529.81 1440.5 2546.31 1426.5 2560.31 1402.5V85C2560.31 85 2529.06 50 2519 39C2497.5 15.5 2477 0 2477 0H1090Z" fill="black" fill-opacity="0.7"/>
<path d="M326.999 296C416.654 172.725 558.667 56.333 630.5 0.5H2561V1439H41.9995C31.9995 1361 35.4995 1158.5 48.9995 1038.5C62.4995 918.5 92.0995 765.063 122 681C156.5 584 206.999 461 326.999 296Z" fill="black" fill-opacity="0.7"/>
</g>
<defs>
<clipPath id="clip0_98_2234">
<rect width="2560" height="1440" fill="white"/>
</clipPath>
</defs>
</svg>
