<svg width="2560" height="1440" viewBox="0 0 2560 1440" fill="none" xmlns="http://www.w3.org/2000/svg">
<g clip-path="url(#clip0_98_2279)">
<path d="M1650.5 1374.5C1644.5 1401.7 1645.83 1428.17 1647 1440H1917.5C1918.5 1421 1922.34 1384 1891 1338.5C1854.5 1285.5 1787.5 1278.5 1736.5 1291C1685.5 1303.5 1658 1340.5 1650.5 1374.5ZM1101.5 1409.5C1071.5 1409.9 1042 1429.67 1031 1439.5H1183C1162.5 1425 1139 1409 1101.5 1409.5ZM591.5 1424C577.9 1424.4 568.5 1434.83 565.5 1440H623C617 1431.5 608.5 1423.5 591.5 1424Z" fill="white" fill-opacity="0.7"/>
</g>
<defs>
<clipPath id="clip0_98_2279">
<rect width="2560" height="1440" fill="white"/>
</clipPath>
</defs>
</svg>
