<svg width="2560" height="1440" viewBox="0 0 2560 1440" fill="none" xmlns="http://www.w3.org/2000/svg">
<g clip-path="url(#clip0_98_2712)">
<path d="M591 1401C564 1401 555.167 1427.17 554 1440H634C634 1427.5 623 1401 591 1401ZM1101 1366C1040.5 1366 1005.17 1416.17 993 1440H1220.5C1204.5 1414.5 1167 1366 1101 1366ZM1621.5 1346C1617.9 1368.4 1625 1418 1629 1440H1935.5C1939 1424 1940.43 1397.5 1934.5 1366C1925 1315.5 1890.5 1273 1853 1253.5C1815.5 1234 1724 1250.5 1680 1273C1636 1295.5 1626 1318 1621.5 1346Z" fill="white" fill-opacity="0.7"/>
</g>
<defs>
<clipPath id="clip0_98_2712">
<rect width="2560" height="1440" fill="white"/>
</clipPath>
</defs>
</svg>
