<svg width="2560" height="1440" viewBox="0 0 2560 1440" fill="none" xmlns="http://www.w3.org/2000/svg">
<g clip-path="url(#clip0_98_2700)">
<path d="M549 1414.5C547.4 1424.9 551 1435.83 553 1440H635.5C636.667 1437.67 639.5 1431 639.5 1420C639.5 1406 625 1382.5 594.5 1378.5C564 1374.5 551 1401.5 549 1414.5ZM1014.5 1359.5C990 1382.5 973.167 1420.83 966 1440H1247.5C1235.17 1409.67 1196.2 1347.99 1142 1332.5C1075.5 1313.5 1045 1330.87 1014.5 1359.5ZM1589 1337C1590.6 1366.6 1605.67 1418.33 1613 1440.5H1951C1956.5 1420.83 1963.5 1366.7 1947.5 1307.5C1927.5 1233.5 1880 1207.5 1827.5 1201.5C1775 1195.5 1663.5 1235.5 1630.5 1252.5C1597.5 1269.5 1587 1300 1589 1337Z" fill="white" fill-opacity="0.7"/>
</g>
<defs>
<clipPath id="clip0_98_2700">
<rect width="2560" height="1440" fill="white"/>
</clipPath>
</defs>
</svg>
