<svg width="2560" height="1440" viewBox="0 0 2560 1440" fill="none" xmlns="http://www.w3.org/2000/svg">
<g clip-path="url(#clip0_98_2522)">
<path d="M985.5 1334.5C957.9 1365.7 946 1417.83 943.5 1440H1271C1264.2 1410.8 1254.83 1393 1248.5 1382C1206.5 1309 1149.5 1294 1110 1289C1070.5 1284 1020 1295.5 985.5 1334.5ZM542.5 1403.5C542.5 1421.5 554.5 1435.67 560.5 1440.5H628.5C642 1428.5 644.364 1414 643 1399C641.136 1378.5 613.5 1350 583.5 1354.5C553.5 1359 542.5 1381 542.5 1403.5ZM1562.5 1341.5C1569.7 1365.1 1589.5 1417.33 1598.5 1440.5H1968C1982.5 1408.5 1987.57 1355.5 1979 1305.5C1964 1218 1931.5 1186.5 1895 1165.5C1858.5 1144.5 1769.5 1162.5 1706 1183C1642.5 1203.5 1596 1219 1570 1247C1544 1275 1553.5 1312 1562.5 1341.5Z" fill="white" fill-opacity="0.7"/>
</g>
<defs>
<clipPath id="clip0_98_2522">
<rect width="2560" height="1440" fill="white"/>
</clipPath>
</defs>
</svg>
