<svg width="2560" height="1440" viewBox="0 0 2560 1440" fill="none" xmlns="http://www.w3.org/2000/svg">
<g clip-path="url(#clip0_98_2364)">
<path d="M1518.5 1279.5C1522.1 1309.9 1563 1398.83 1583 1439.5H1977.5C1992.3 1416.7 2001 1364.33 2003.5 1341C2005.33 1310.17 2002.7 1233.6 1977.5 1174C1946 1099.5 1855.5 1111 1825 1116C1794.5 1121 1628 1165 1583 1183.5C1538 1202 1514 1241.5 1518.5 1279.5ZM533 1372.5C537.26 1345.72 556 1337.83 568 1334C601.5 1325.5 632.501 1350 644.001 1372.5C655.501 1395 641.001 1434 597.001 1439C553.001 1444 529.5 1394.5 533 1372.5ZM952.5 1321C932.1 1351.8 925 1413.17 924 1440H1290C1262 1307.5 1179 1262.5 1094 1257C1009 1251.5 978 1282.5 952.5 1321Z" fill="white" fill-opacity="0.7"/>
</g>
<defs>
<clipPath id="clip0_98_2364">
<rect width="2560" height="1440" fill="white"/>
</clipPath>
</defs>
</svg>
