<svg width="2560" height="1440" viewBox="0 0 2560 1440" fill="none" xmlns="http://www.w3.org/2000/svg">
<g clip-path="url(#clip0_98_2447)">
<path d="M525 1365C510.6 1335 523.053 1308.19 532.5 1300C540 1293.5 549 1285.5 574 1287.5C608.423 1290.25 641.5 1321 648.5 1343.5C655.5 1366 646 1399 613.5 1409.5C581 1420 543 1402.5 525 1365ZM2142.5 1410.5C2120.5 1411.7 2100.33 1430.67 2093 1440H2204C2187.5 1420 2170 1409 2142.5 1410.5ZM890 1303.5C880.4 1343.1 886 1411.33 890 1440.5H1322.5C1321.33 1424 1322.5 1394 1297 1333C1273.07 1275.77 1223.5 1235 1184 1226.5C1144.5 1218 1072 1206.5 995 1209C918 1211.5 902 1254 890 1303.5ZM1498 1337C1522.8 1378.6 1545.67 1423.67 1554 1441H2006C2022.8 1422.6 2037.67 1360.67 2043 1332C2065 1169 2040 1090 1997 1051C1954 1012 1818 1025 1738 1046C1634.71 1073.11 1533 1120 1485 1177C1437 1234 1467 1285 1498 1337Z" fill="white" fill-opacity="0.7"/>
<path d="M1678 1400C1607 1400 1542.33 1427.33 1514 1441H1863C1826 1423 1757 1400 1678 1400Z" fill="white" fill-opacity="0.7"/>
</g>
<defs>
<clipPath id="clip0_98_2447">
<rect width="2560" height="1440" fill="white"/>
</clipPath>
</defs>
</svg>
