<svg width="2560" height="1440" viewBox="0 0 2560 1440" fill="none" xmlns="http://www.w3.org/2000/svg">
<g clip-path="url(#clip0_98_2684)">
<path d="M493.5 1294.5C484.3 1258.9 497.5 1242.17 508.5 1234.5C573.001 1189.5 648.168 1264 653.501 1306C658.263 1343.5 636.501 1372 592.501 1373C548.501 1374 505 1339 493.5 1294.5ZM813 1285C817 1329.4 839.667 1407.17 850.5 1440.5H1365.5C1369.5 1408 1369 1360 1341 1297.5C1300.08 1206.16 1247 1183.5 1192 1175C1137 1166.5 1075.5 1156.5 1005 1141.5C934.5 1126.5 903.5 1127 860.5 1147C817.5 1167 808 1229.5 813 1285Z" fill="white" fill-opacity="0.7"/>
<path d="M712.5 1354C640.1 1367.2 595 1416.5 581.5 1439.5H934C887 1377 803 1337.5 712.5 1354ZM1447 1339C1464.6 1366.2 1501 1417.67 1517 1440H2044C2120 1294 2123.5 1154 2102.5 1019C2081.5 884 2047 846.183 2024 841C1988.5 833 1969.5 850.5 1911.5 897C1853.5 943.5 1795.5 940 1761.5 897C1719.52 843.907 1687.5 822.948 1669 825.5C1644 828.948 1637.5 842.5 1619 893C1600.5 943.5 1576.5 974 1552 1008C1527.5 1042 1452.5 1108 1415.5 1176C1378.5 1244 1425 1305 1447 1339Z" fill="white" fill-opacity="0.7"/>
<path d="M1363.5 1343.5C1342.06 1366.56 1307 1413 1291 1440H2087.5C2065 1412 2035 1373 1995 1341.5C1855 1221 1667 1245.39 1597 1254C1471 1269.5 1390 1315 1363.5 1343.5Z" fill="white" fill-opacity="0.7"/>
<path d="M2100 1352C2068.07 1379.31 2066.83 1419.17 2070 1440H2227C2235.4 1417.2 2227 1390.25 2222.5 1382C2192.5 1327 2138 1319.5 2100 1352ZM1518.48 704.575C1514.39 714.417 1503.45 721.937 1493.04 722.754C1447.35 726.34 1442.03 689.841 1452.62 672.442C1464.16 653.469 1487.25 655.158 1504.32 666.201C1521.39 677.243 1521.54 697.204 1518.48 704.575Z" fill="white" fill-opacity="0.7"/>
</g>
<defs>
<clipPath id="clip0_98_2684">
<rect width="2560" height="1440" fill="white"/>
</clipPath>
</defs>
</svg>
