<svg width="2560" height="1440" viewBox="0 0 2560 1440" fill="none" xmlns="http://www.w3.org/2000/svg">
<g clip-path="url(#clip0_98_2324)">
<path d="M506.501 1320C468.101 1276.8 481.001 1231 499.001 1212.5C517 1194 566.501 1182.5 619.001 1232C671.501 1281.5 653.501 1327 634.501 1344C615.501 1361 554.501 1374 506.501 1320Z" fill="white" fill-opacity="0.7"/>
<path d="M728 1319C628 1328.2 570.333 1403.5 554 1440H960.5C935 1388 853 1307.5 728 1319Z" fill="white" fill-opacity="0.7"/>
<path d="M789 1221.5C783 1276.3 819.5 1390 838.5 1440H1375C1382.17 1425 1387.38 1374.5 1356.5 1297.5C1317 1199 1268 1169.5 1185.5 1159C1103 1148.5 1068.5 1138.5 950.5 1111.5C832.5 1084.5 796.5 1153 789 1221.5Z" fill="white" fill-opacity="0.7"/>
<path d="M1293 1344C1268.52 1372.86 1246.5 1418 1241 1439.5L2146.5 1440.5C2139 1430.67 2107.1 1390.6 2039.5 1309C1955 1207 1882.5 1200 1821 1194.5C1759.5 1189 1564 1208.5 1476 1227C1388 1245.5 1340.5 1288 1293 1344Z" fill="white" fill-opacity="0.7"/>
<path d="M2071.5 1360.5C2053.1 1394.5 2063.83 1427.67 2071.5 1440H2226.5C2253 1386 2219 1323.5 2177 1310.5C2135 1297.5 2094.5 1318 2071.5 1360.5ZM1562.16 729.588C1553.66 750.088 1524.68 757.162 1512.16 757.588C1394.66 761.588 1391.16 683.588 1417.16 650.088C1443.16 616.588 1489.16 614.088 1524.66 637.088C1560.16 660.088 1568.53 714.235 1562.16 729.588Z" fill="white" fill-opacity="0.7"/>
<path d="M2120 1008C2123.57 1030.94 2125.89 1054.06 2126.96 1077.26L2127 1077.5C2142 1177.5 2142.13 1332 2026.13 1537H1477.13C1462.8 1517 1429.53 1471 1411.13 1447C1408.91 1444.1 1406.29 1440.86 1403.39 1437.3C1379.28 1407.56 1336.64 1355 1354.08 1284.32C1358.04 1263.97 1366.99 1233.23 1384.5 1200.5C1405.66 1160.95 1456.43 1095.65 1488.87 1054.86C1497.51 1043.7 1505.83 1033.15 1513.42 1023.54C1525.28 1008.5 1535.34 995.743 1542 986.5C1566.13 953.009 1580.56 895.261 1588.64 862.955L1589 861.5C1597 829.5 1614.5 790.5 1655.5 790.5C1696.5 790.5 1725 805 1769.5 856C1814 907 1851 928.5 1909 882C1923.45 870.418 1936.53 858.96 1948.58 848.406V848.405C1984.9 816.589 2011.84 792.993 2038.5 799C2074 807 2099 873 2120 1008V1008Z" fill="white" fill-opacity="0.7"/>
</g>
<defs>
<clipPath id="clip0_98_2324">
<rect width="2560" height="1440" fill="white"/>
</clipPath>
</defs>
</svg>
