<svg width="2560" height="1440" viewBox="0 0 2560 1440" fill="none" xmlns="http://www.w3.org/2000/svg">
<g clip-path="url(#clip0_98_2261)">
<path d="M482.126 1274.54C436.126 1222.54 454.625 1166.04 470.126 1150.54C495.626 1125.04 545.126 1130.04 603.126 1168.54C661.126 1207.04 664.626 1268.54 641.126 1299.04C617.626 1329.54 539.626 1339.54 482.126 1274.54ZM1349 1283C1368.2 1323 1435 1405.33 1466 1442L2102 1441C2123.41 1405.67 2170.59 1324.8 2188 1276C2257 1109 2231 994 2197 808C2163 622 2058 626 1915 658C1772 690 1711 670 1607 604C1503 538 1397 542 1358 642C1319 742 1382 793 1425 842C1468 891 1423 965 1382 1061C1341 1157 1325 1233 1349 1283Z" fill="white" fill-opacity="0.7"/>
<path d="M2157 1174C2229.15 1276 2271 1379.33 2299 1441L1077.5 1441.5C1078.67 1435 1089.4 1404.8 1123 1336C1165 1250 1292 1210 1366 1173C1440 1136 1633 1032 1679 1016C1725 1000 1781 1015 1919 1009C2057 1003 2099 1092 2157 1174ZM553 1290C511.4 1332.4 491 1408.33 486 1441L1029 1440C1026 1417.5 1015.67 1392.5 1011 1382C959.5 1270 889.5 1237 796.5 1225.5C703.5 1214 605 1237 553 1290Z" fill="white" fill-opacity="0.7"/>
<path d="M489.5 1411C445.1 1409 405.333 1430.17 391 1441H606.5C586 1431.83 554.5 1413.93 489.5 1411Z" fill="white" fill-opacity="0.7"/>
<path d="M886.5 1336C1014.9 1342.8 1131 1407.83 1173 1439.5L475.5 1440.5C480.667 1436.67 501.4 1424.4 543 1406C595 1383 726 1327.5 886.5 1336Z" fill="white" fill-opacity="0.7"/>
<path d="M723.999 1261.27C735.199 1308.87 778.666 1401.1 798.999 1441.27H1411.5C1425 1416.77 1433.12 1377.27 1408 1296.77C1369 1171.77 1297 1133.77 1211 1121.27C1125 1108.77 1121.5 1106.77 971.499 1059.27C821.499 1011.77 769.999 1044.27 737.999 1091.77C705.999 1139.27 709.999 1201.77 723.999 1261.27ZM2081 1263C2112.3 1221.39 2165.33 1221.17 2190.5 1228C2255.5 1254 2268 1323.5 2254.5 1371.5C2243.7 1409.9 2211.33 1433.83 2196.5 1441H2111C2099.17 1435.67 2072.6 1419.3 2061 1396.5C2046.5 1368 2038.5 1319.5 2081 1263Z" fill="white" fill-opacity="0.7"/>
</g>
<defs>
<clipPath id="clip0_98_2261">
<rect width="2560" height="1440" fill="white"/>
</clipPath>
</defs>
</svg>
