<svg width="2560" height="1440" viewBox="0 0 2560 1440" fill="none" xmlns="http://www.w3.org/2000/svg">
<g clip-path="url(#clip0_98_2413)">
<path d="M481.5 1378C415.1 1378.8 361.5 1420 343 1440.5H652C617 1405.5 564.5 1377 481.5 1378Z" fill="white" fill-opacity="0.7"/>
<path d="M547 1243.5C491.8 1279.5 468.333 1389.83 463.5 1440.5L1052 1440C1034 1352.5 996 1226 852.5 1202.5C709 1179 616 1198.5 547 1243.5Z" fill="white" fill-opacity="0.7"/>
<path d="M461 1242.5C424.2 1187.7 447 1141.67 463 1125.5C498.501 1094.5 550 1113.89 600 1147.5C661 1188.5 674 1266 629.5 1297C585 1328 507 1311 461 1242.5ZM618.5 1309.5C512.534 1341.96 418 1408.83 384.5 1440L1272.5 1439.5C1191.5 1366.5 1118 1317.89 1024.5 1285C899 1240.85 729.5 1275.5 618.5 1309.5Z" fill="white" fill-opacity="0.7"/>
<path d="M697.501 1252.5C712.701 1310.1 759.501 1401.83 781.001 1440.5H1429C1450 1408 1445 1338 1422.5 1285C1375.6 1174.53 1302.5 1118.5 1192 1103.5C1081.5 1088.5 1044.5 1066 927.501 1024C810.501 982 744.501 1017 715.001 1062.5C685.501 1108 678.501 1180.5 697.501 1252.5Z" fill="white" fill-opacity="0.7"/>
<path d="M1105 1277C1056.2 1309.8 1032.67 1399.33 1027 1440L2350 1441C2299 1286 2231 1152 2106 988C2020.99 876.464 1996.42 885.83 1955.07 901.591L1954 902C1912 918 1871 939 1804 931C1737 923 1693 845 1649 822C1605 799 1606 831 1609 912C1612 993 1517 1057 1416 1117C1315 1177 1166 1236 1105 1277Z" fill="white" fill-opacity="0.7"/>
<path d="M2079 1233C2111.8 1189.8 2169.5 1192.5 2202 1202C2281.5 1248 2265 1335 2258 1356C2251 1377 2202 1468 2112 1428C2022 1388 2038 1287 2079 1233Z" fill="white" fill-opacity="0.7"/>
<path d="M1322 1168C1282 1278.4 1386 1396 1443 1441H2119C2166.33 1379.33 2259.8 1210.4 2255 1028C2249 800 2187 674 2111 626C2035 578 1887 643 1788 652C1689 661 1611 568 1541 549C1471 530 1380 557 1340 652C1300 747 1374 813 1396 871C1418 929 1372 1030 1322 1168Z" fill="white" fill-opacity="0.7"/>
</g>
<defs>
<clipPath id="clip0_98_2413">
<rect width="2560" height="1440" fill="white"/>
</clipPath>
</defs>
</svg>
