<svg width="2560" height="1440" viewBox="0 0 2560 1440" fill="none" xmlns="http://www.w3.org/2000/svg">
<g clip-path="url(#clip0_98_2606)">
<path d="M456 1347C385 1347.86 330.121 1409.84 303 1440H692C640.689 1388.5 577.68 1345.53 456 1347Z" fill="white" fill-opacity="0.7"/>
<path d="M523 1212C446 1262.22 450.833 1389.36 446 1440.02H1072C1057 1322 1021 1201.68 852 1174C708.5 1150.5 592 1167 523 1212Z" fill="white" fill-opacity="0.7"/>
<path d="M449.121 1225.13C409.872 1166.8 434.189 1117.8 451.254 1100.59C489.117 1067.59 544.044 1088.23 597.371 1124C662.431 1167.65 676.296 1250.14 628.835 1283.14C581.373 1316.14 498.182 1298.04 449.121 1225.13V1225.13Z" fill="white" fill-opacity="0.7"/>
<path d="M672.242 1240.49C688.379 1301.62 738.064 1398.97 760.889 1440H1448.83C1471.13 1405.51 1465.82 1331.23 1441.93 1274.98C1392.14 1157.75 1324.31 1106.92 1207 1091C1089.69 1075.08 1040.63 1042.57 916.419 998.002C792.207 953.43 719.317 980.714 687.998 1029C656.68 1077.29 652.071 1164.08 672.242 1240.49Z" fill="white" fill-opacity="0.7"/>
<path d="M1049 1260C975 1317.78 980.667 1398.6 975 1439.27L2405 1440.27C2380.36 1365.37 2354 1299 2316 1224C2272 1127 2215.12 1068.09 2167 973C2125 890 2120.37 816.559 2088 778C2055.63 739.441 1996.53 746.422 1976 757C1811 842 1771 796 1741 778C1711 760 1539 625 1477 625C1451.37 625 1396.24 645.674 1412 713C1417.45 736.271 1448.65 764.689 1487.74 798.736C1497.87 807.563 1507.38 817.213 1514.67 828.505C1538.84 865.962 1538.35 890.367 1539 908C1542 989 1461.69 1038.12 1368 1109C1253 1196 1122 1203 1049 1260Z" fill="white" fill-opacity="0.7"/>
<path d="M1302.93 1166.71C1262.93 1277.11 1366.93 1394.71 1423.93 1439.71H2137C2184.33 1378.04 2298.18 1221.65 2281 1040C2253 744 2191 654 2115 606C2039 558 1884 615.705 1785 624.705C1686 633.705 1633 554.428 1543 530C1473 511 1366 542 1326 637C1286 732 1347 818 1369 876C1391 934 1352.93 1028.71 1302.93 1166.71Z" fill="white" fill-opacity="0.7"/>
<path d="M2070 1213C2097.84 1176.34 2145.69 1167.66 2181.31 1170.85C2197.27 1172.27 2212.49 1178.66 2224.85 1188.85C2286.2 1239.43 2271.06 1317.87 2264.3 1338.15C2256.88 1360.38 2203.29 1460.34 2108 1418C2012.71 1375.66 2026.59 1270.16 2070 1213V1213ZM564 1260C444.8 1288.8 337.667 1392.67 299 1441L1357 1439C1237 1313 1150 1272 1019 1223C888 1174 713 1224 564 1260Z" fill="white" fill-opacity="0.7"/>
</g>
<defs>
<clipPath id="clip0_98_2606">
<rect width="2560" height="1440" fill="white"/>
</clipPath>
</defs>
</svg>
