<svg width="2560" height="1440" viewBox="0 0 2560 1440" fill="none" xmlns="http://www.w3.org/2000/svg">
<g clip-path="url(#clip0_98_2635)">
<path d="M458 1282C322.907 1282 267 1410 255 1440.21H745C676 1324 567 1282 458 1282Z" fill="white" fill-opacity="0.7"/>
<path d="M486 1147C399.16 1203.63 407.451 1382.53 402 1439.66H1108C1097 1314 1139 1176 878 1128C716.711 1098.34 563.818 1096.26 486 1147Z" fill="white" fill-opacity="0.7"/>
<path d="M428.999 1182C390.616 1118.18 430.022 1058.29 448.999 1041C490.826 1008.13 534.75 1044.58 589.239 1085.29C671.624 1146.84 683.999 1236.94 622.129 1265.13C550.999 1297.54 476.979 1261.77 428.999 1182Z" fill="white" fill-opacity="0.7"/>
<path d="M616.001 1228C632.011 1297 696.001 1393 730.502 1440H1483.25C1507.64 1402.25 1505.62 1315.99 1475.7 1259.4C1415.46 1145.48 1348.74 1083.32 1220.38 1065.9C1092.02 1048.48 1021 1009.21 886.001 950C715.001 875 696.067 900 639.001 988C604.733 1040.84 596.454 1143.75 616.001 1228Z" fill="white" fill-opacity="0.7"/>
<path d="M895 1230C877.098 1270.53 873 1394.45 873 1438.95L2508 1440C2491 1360 2468.02 1291.29 2428 1212.34C2381.67 1110.23 2316.67 1029.1 2266 929C2221.77 841.628 2204.8 761.581 2169 710C2133.2 658.419 2073.92 632.245 2003 643.898C1849.26 669.162 1846.66 691.692 1741 672C1635.34 652.308 1604 561 1471.29 566C1421.55 567.874 1352.75 599.593 1347 672C1340.41 755 1400 799 1431 864C1462 929 1395.06 1011.96 1374 1032C1306 1096.7 1208 1165 1087 1158C966 1151 923.458 1165.57 895 1230Z" fill="white" fill-opacity="0.7"/>
<path d="M1274 1158C1231.6 1275.03 1340.3 1392.3 1400.71 1440H2187C2246 1375 2342.78 1196.71 2327.58 1019.41C2302.65 728.635 2238.75 613.852 2138 558C2033.1 499.845 1948.79 562.291 1820 574C1715.07 583.54 1662.8 511.991 1566 492C1474 473 1363.07 512.377 1314 610C1255.5 726.385 1315.63 810.068 1326 875C1345 994 1326.99 1011.72 1274 1158Z" fill="white" fill-opacity="0.7"/>
<path d="M2062.41 1170.99C2100.42 1120.89 2172.45 1110.36 2219 1129C2311.12 1182.35 2288.11 1283.65 2280 1308C2271.89 1332.35 2208.65 1438.06 2104.36 1391.67C2000.07 1345.28 2014.9 1233.61 2062.41 1170.99V1170.99ZM481 1154C327.316 1191.05 197 1380 155 1442L1504 1439.43C1349.28 1277.35 1250 1223.45 1068.22 1161.58C855 1089 645 1114.47 481 1154Z" fill="white" fill-opacity="0.7"/>
</g>
<defs>
<clipPath id="clip0_98_2635">
<rect width="2560" height="1440" fill="white"/>
</clipPath>
</defs>
</svg>
