<svg width="2560" height="1440" viewBox="0 0 2560 1440" fill="none" xmlns="http://www.w3.org/2000/svg">
<g clip-path="url(#clip0_98_2704)">
<path d="M1225 1155.96C1185.63 1264.71 1262.57 1376.59 1319 1440H2248C2309.66 1372.03 2424.11 1193 2400 992C2360.78 665 2277.81 552.475 2172.52 494.074C2039.8 420.453 1936 472 1835 494.074C1750 512.651 1710.23 453.05 1589 428C1492.85 408.133 1345.08 459.962 1293.79 562.041C1232.65 683.738 1247.1 771.168 1268 849.591C1300.33 970.886 1280.38 1003 1225 1155.96ZM448 1183C267 1183 204 1373 194 1440H807C757 1289 580.802 1183 448 1183Z" fill="white" fill-opacity="0.7"/>
<path d="M446 1035C349.208 1098.23 322 1307 356 1439.97H1161C1203 1171 1167.77 1141.86 905 1084C730.483 1045.58 554 964.447 446 1035Z" fill="white" fill-opacity="0.7"/>
<path d="M562.999 1247C592.999 1328 638.727 1387.48 676.998 1439.58H1540.63C1567.69 1397.73 1567.92 1292.59 1540.63 1241C1480.98 1128.26 1371.1 1035.01 1228 1022C1107 1011 915.999 914 833.999 830C733.114 726.655 617.999 835 569.999 919C537.566 975.756 513.45 1113.22 562.999 1247Z" fill="white" fill-opacity="0.7"/>
<path d="M723.751 1186C723.751 1087 762.057 862.657 928 956C1047 1066 1166 1089 1247.89 1041.78L1249.62 1040.56C1275.62 1022.4 1349.12 953.565 1317.12 861.568C1309.58 839.885 1301.52 820.647 1294 802.687C1269.6 744.444 1262 674 1294 610C1332.5 533 1394.43 497.29 1468 489C1539 481 1590.23 492 1666 532C1697.09 548.413 1739 576 1807 576C1891 565 1889 562.287 1939 549C1967.62 541.394 1995 532 2055 532C2182 544 2212.1 579.594 2260 641C2293.97 684.55 2336.42 753.332 2368 812C2380.95 836.056 2424.05 901.655 2442 927C2476 975 2495.73 1006.91 2518 1043C2531.57 1065 2536 1077 2560 1119V1440.23L720 1439.1C725.617 1400.11 724.714 1363.68 723.751 1324.85V1186Z" fill="white" fill-opacity="0.7"/>
<path d="M2058.36 1123.47C2108.69 1061.06 2179.74 1023.17 2235 1050C2332 1102.5 2324.07 1212.38 2300.5 1268.5C2276.93 1324.62 2198.46 1402.29 2100.99 1356.49C1992 1305.29 2003.72 1191.21 2058.36 1123.47V1123.47ZM1102.31 1092C565 974 573 883.999 425 938C331.176 972.234 96 1194 0 1378V1439.96L1687 1437C1577 1235 1311.52 1137.94 1102.31 1092Z" fill="white" fill-opacity="0.7"/>
<path d="M2128 1371C1995 1358.58 1893 1416 1851 1440H2345C2313 1421 2235.14 1381 2128 1371ZM403.005 1143.47C367.157 1056.85 418.112 958.76 442 937C494.651 895.622 519.249 931.71 580.999 1013C622.89 1068.15 658.98 1105.91 668 1143.47C675.991 1176.74 661.366 1211.7 630.965 1231.36C548.339 1284.79 429.319 1207.05 403.005 1143.47Z" fill="white" fill-opacity="0.7"/>
</g>
<defs>
<clipPath id="clip0_98_2704">
<rect width="2560" height="1440" fill="white"/>
</clipPath>
</defs>
</svg>
