<svg width="2560" height="1440" viewBox="0 0 2560 1440" fill="none" xmlns="http://www.w3.org/2000/svg">
<g clip-path="url(#clip0_98_2270)">
<path d="M431 1079C259 1059 139 1283 145 1440H851C837 1247 562.913 1094.34 431 1079ZM2128 1224C1946 1207.01 1711 1382 1663 1439.74H2514C2450 1355 2266 1236.88 2128 1224Z" fill="white" fill-opacity="0.7"/>
<path d="M605 782.999C471.473 865.877 443 1011 455 1127C466.999 1243 566.999 1379 623 1440H1591C1643 1348 1634 1263 1634 1263C1634 1263 1634 1213 1608 1176C1526.23 1059.64 1322 1003 1169 962C956.946 905.175 913 780 867 733C821 686.001 750 693 605 782.999Z" fill="white" fill-opacity="0.7"/>
<path d="M1055 1008.5C1164.5 1050.03 1459.18 1118.76 1683 1168C1783 1190 1813 1332 1857 1440H-2V1102C19 1082 30.905 1051.08 113 966C223 852 333.5 697.812 419.5 679C531.5 654.5 667.463 698.299 711.5 767.5C816.5 932.5 819 919 1055 1008.5Z" fill="white" fill-opacity="0.7"/>
<path d="M358 975.999C266 1121 264 1284 308 1439.84H1208C1228.83 1317.48 1237.8 1238.64 1214 1186C1182.39 1116.1 1080.17 1069.66 910 1039C638 990 664 807.229 532 826C457 836.665 399.242 911 358 975.999Z" fill="white" fill-opacity="0.7"/>
<path d="M2369 580C2421 640 2496 728 2562 810V1438H582.001C594.001 1323 580.348 1282 582.001 1189C586.002 964 679.001 848.598 790.001 784C870.793 736.982 944.001 768 981.001 823C1018 878 1136 986.786 1186 960C1236 933.214 1215.26 893.981 1204 813C1178 626 1257 520 1318 466C1379 412 1504.15 372.774 1595 397C1700 425 1717.35 449.64 1792 457C1866.65 464.36 1955 403 2080 419C2205 435 2311.1 513.191 2369 580Z" fill="white" fill-opacity="0.7"/>
<path d="M2349 548C2443.91 699.673 2509 929 2464 1132.69C2438.54 1247.92 2385.82 1356 2316.34 1438.69L1259 1439.69C1255 1433.69 1210 1404.69 1176 1334.69C1127.91 1235.69 1162 1173.69 1210 1042.69C1258 911.692 1203 829.762 1203 715.692C1203 582.692 1305.59 434.141 1430 371.001C1570 299.949 1731 344 1731 344C1731 344 1795 362.971 1984 350C2061.1 344.709 2247 385 2349 548Z" fill="white" fill-opacity="0.7"/>
<path d="M1478.57 795.476C1457.24 748.984 1471.5 711.907 1493 694.5C1536.5 659.282 1586.52 678.5 1614.5 715C1647.46 758 1622 820.137 1586 844C1553.75 865.374 1505.23 853.592 1478.57 795.476ZM850.001 928.5C837.502 885.5 852.786 855.517 868.767 842.579C901.099 816.402 938.28 830.686 959.075 857.816C983.572 889.777 979.501 946.126 946.501 968C922.534 983.887 861.483 968 850.001 928.5ZM2057 1068.61C2110.38 1002.62 2174.4 929.632 2233 958C2349 1028 2359 1150 2318 1224C2277 1298 2189 1355.52 2100.27 1313.95C1984.68 1259.81 1999.06 1140.24 2057 1068.61ZM394.001 1122.74C345.173 1004.76 381.529 902 422.001 855C453.001 819 528.001 762 573.001 802C606.21 831.519 581.001 914 607.001 980C638.739 1060.57 658.981 1085.18 668.001 1122.74C672.867 1143 668.001 1189 625.001 1215C529.769 1272.58 420.314 1186.32 394.001 1122.74V1122.74Z" fill="white" fill-opacity="0.7"/>
</g>
<defs>
<clipPath id="clip0_98_2270">
<rect width="2560" height="1440" fill="white"/>
</clipPath>
</defs>
</svg>
