<svg width="2560" height="1440" viewBox="0 0 2560 1440" fill="none" xmlns="http://www.w3.org/2000/svg">
<g clip-path="url(#clip0_98_2290)">
<path d="M431 1116C282 1093 162 1291 162 1440H834C820 1247 562.248 1136.26 431 1116ZM2128 1274C1946 1257.01 1766 1397 1727 1439.74H2464C2406 1368 2266 1286.88 2128 1274Z" fill="white" fill-opacity="0.7"/>
<path d="M636 783C502.474 865.878 474 1011 486 1127C498 1243 598 1379 654 1440H1567C1583.33 1423 1612 1364 1596 1264C1571.2 1109 1361 1018 1189 981C1017 944 891 810 860 774C829 738 781 693 636 783Z" fill="white" fill-opacity="0.7"/>
<path d="M1034 1022C1188 1085 1376.76 1131.53 1549 1192C1737 1258 1758 1332 1802 1440H-2V1179C19 1159 30.905 1128.08 113 1043C223 929 384 739 458 730C595 713.337 640.937 770.025 691 835C785 957 918.096 974.584 1034 1022Z" fill="white" fill-opacity="0.7"/>
<path d="M372 1015C301.714 1138 280 1284 324 1439.84H1191C1211.83 1317.48 1227.3 1238.64 1203.5 1186C1171.89 1116.1 1078.57 1090.51 910 1052C661.05 995.133 626 878.5 517 894C456.421 902.614 404 959 372 1015Z" fill="white" fill-opacity="0.7"/>
<path d="M2341 614C2388.06 675 2481 797 2562 904V1438H626.999C645.999 1349 623.799 1353 626.999 1173C630.999 948 755.999 829.593 819.999 813C900.999 792 944.999 848 971.999 875C998.999 902 1102 1039 1192 1001C1282 963 1261.07 876 1240 797C1204 662 1257 559 1318 505C1379 451 1504.15 411.774 1595 436C1700 464 1717.35 497.64 1792 505C1866.65 512.36 1955 442 2080 458C2205 474 2287 544 2341 614Z" fill="white" fill-opacity="0.7"/>
<path d="M2327 563C2429 710 2471 946 2440 1139C2421.29 1255.51 2336.89 1389.95 2294.56 1440.33L1282 1440C1278 1434 1235 1405 1201 1335C1152.91 1236 1175 1174 1223 1043C1271 912 1216 830.07 1216 716C1216 583 1311 444 1442 396C1573 348 1655 372 1775 411C1831 429.2 1874 397 1976 390C2053.1 384.709 2225 416 2327 563Z" fill="white" fill-opacity="0.7"/>
<path d="M1486.94 783.334C1468.04 742.132 1490.68 709.673 1504.36 698.595C1522.45 686.139 1562.55 676.675 1594.73 718.666C1626.92 760.656 1615.63 808.986 1587.06 827.928C1558.48 846.87 1510.57 834.837 1486.94 783.334V783.334ZM2057 1085C2110.38 1019.01 2180.4 963.632 2239 992C2341.87 1047.52 2357 1161 2316 1235C2275 1309 2189 1371.91 2100.27 1330.34C1984.68 1276.2 1999.06 1156.63 2057 1085ZM397 1122.74C348.171 1004.76 407 899.967 436 873C467 837 527.352 805.095 550 833C578 867.5 574.212 940.521 598.5 985C640 1061 658.979 1085.18 668 1122.74C672.866 1143 666.114 1193.88 630.965 1210.63C530.5 1258.5 423.313 1186.32 397 1122.74Z" fill="white" fill-opacity="0.7"/>
</g>
<defs>
<clipPath id="clip0_98_2290">
<rect width="2560" height="1440" fill="white"/>
</clipPath>
</defs>
</svg>
