<svg width="2560" height="1440" viewBox="0 0 2560 1440" fill="none" xmlns="http://www.w3.org/2000/svg">
<g clip-path="url(#clip0_98_2352)">
<path d="M416 1044C244 1024 117 1267 131 1440H864C864 1223 547.913 1059.34 416 1044ZM2124 1180C1941 1156 1684 1326 1638 1439.74L2561 1439.73C2501 1362 2350 1209.64 2124 1180Z" fill="white" fill-opacity="0.7"/>
<path d="M586.999 773C444.589 867.045 435 1011 446.999 1127C458.999 1243 566.999 1379 622.999 1440H1602C1651 1343 1636.88 1297.43 1659 1228C1695 1115 1632.67 1118 1621 1115C1390 1061 1410 994 1201 952C985.767 908.747 963 769 887 706C811 643 729.409 678.956 586.999 773Z" fill="white" fill-opacity="0.7"/>
<path d="M728.999 714.001C824.257 890 899.999 921 1051 987C1117.12 1015.9 1293 1080 1488 1106C1618.23 1123.36 1656.08 1071.1 1742 1090C1823 1107.82 1865 1332 1909 1440H-2.0007V1003C-2.0007 1003 -19.0957 1020.08 62.9993 935C172.999 821 273.999 683 391.999 632.001C456.999 603.908 689.956 641.864 728.999 714.001Z" fill="white" fill-opacity="0.7"/>
<path d="M340.999 942C231.868 1114 245.999 1299 294.999 1439.84H1218C1244 1334 1252.8 1230.64 1229 1178C1197.4 1108.1 1080.17 1054.66 910 1024C638 975 734 765 512.999 791C437.763 799.851 382.241 877 340.999 942Z" fill="white" fill-opacity="0.7"/>
<path d="M2419 563C2469 618 2517 669 2560 719V1438H524.999C536.999 1323 523.345 1273 524.999 1180C529.621 920 670.999 805 771.999 756C856.101 715.198 950.999 723 994.999 771C1039 819 1117 918.286 1153 899C1189 879.714 1168.19 819.731 1166 738C1161 551 1269.5 454.18 1377 397C1424 372 1522.15 327.774 1613 352C1718 379.999 1722 391 1797 391C1872 391 1970 361 2095 377C2220 392.999 2340.94 477.138 2419 563Z" fill="white" fill-opacity="0.7"/>
<path d="M2385 546C2479.91 697.673 2534 929 2489 1132.69C2463.54 1247.92 2410.82 1356 2341.34 1438.69L1229.23 1439.69C1225.23 1433.69 1180.23 1404.69 1146.23 1334.69C1098.15 1235.69 1132.23 1173.69 1180.23 1042.69C1228.23 911.692 1173.23 829.762 1173.23 715.692C1173.23 582.692 1287.73 426.578 1405 351.001C1540 264 1706 284 1706 284C1706 284 1815 279 1985 306C2129.19 328.901 2283 383 2385 546Z" fill="white" fill-opacity="0.7"/>
<path d="M1466.19 803.863C1441.14 749.261 1457.89 705.718 1483.14 685.274C1534.23 643.914 1596.14 664.133 1629 707C1667.71 757.5 1630.56 827.477 1592.36 860.85C1559 890 1497.51 872.115 1466.19 803.863V803.863ZM816.838 953.192C796.578 883.492 831.001 833 851.999 816C904.407 773.57 960.294 789.024 994 833C1033.71 884.806 1035 976.291 973.258 1017.22C928 1047.22 835.449 1017.22 816.838 953.192ZM2048 1062.5C2123.63 969 2174.9 890.132 2233.5 918.5C2349.5 988.5 2377.5 1123 2323 1226C2268.5 1329 2189 1355.52 2100.27 1313.95C1984.68 1259.81 1983.69 1142 2048 1062.5ZM393.999 1122.74C345.171 1004.76 367.527 889 407.999 842C444.999 785 545.999 733 590.999 773C635.998 813 591.999 915 617.999 981C649.737 1061.57 658.979 1085.18 667.999 1122.74C672.865 1143 667.999 1189 624.999 1215C529.767 1272.58 426.389 1201 393.999 1122.74Z" fill="white" fill-opacity="0.7"/>
</g>
<defs>
<clipPath id="clip0_98_2352">
<rect width="2560" height="1440" fill="white"/>
</clipPath>
</defs>
</svg>
