<svg width="2560" height="1440" viewBox="0 0 2560 1440" fill="none" xmlns="http://www.w3.org/2000/svg">
<g clip-path="url(#clip0_98_2343)">
<path d="M2421 546C2515.91 697.673 2556 934 2511 1137.69C2485.54 1252.92 2427.82 1356 2358.34 1438.69L1204.23 1439.69C1200.23 1433.69 1169 1410 1135 1340C1086.91 1241 1071.24 1218 1135 1044C1198.76 870 1146.4 847.282 1159 744C1179 580 1278.23 381 1428 297C1568.08 218.435 1707 224 1707 224C1707 224 1842 204 2065 274C2252.63 332.896 2319 383 2421 546ZM418.999 998C255.999 998 99.999 1210 118.999 1440H882.999C882.999 1308.99 798.999 1198 616.999 1110C509.999 1050 482.999 998 418.999 998Z" fill="white" fill-opacity="0.7"/>
<path d="M2124 1135C1941 1111 1629 1297 1593 1439.74H2561V1382C2483.35 1291.34 2298.91 1157.94 2124 1135Z" fill="white" fill-opacity="0.7"/>
<path d="M572.001 758C397 854 415.001 1011 427.001 1127C439.001 1243 546 1379 602 1440H1613C1622.67 1424 1646.4 1376.8 1664 1316L1664.27 1315.08C1686.14 1239.53 1703.14 1180.77 1739 1124C1775 1067 1798 1031 1857 981C1916 931 1977 835 1925 811C1873 787 1812 872 1777 949C1742 1026 1709 1054 1642 1071C1575 1088 1526 1077 1409 1017C1315.4 969 1248 943.667 1226 937C1010.77 893.748 987 746.632 903 677C819 607.369 721.626 675.92 572.001 758Z" fill="white" fill-opacity="0.7"/>
<path d="M785 706C880.257 881.999 966.909 926 1063 968C1129.12 996.898 1293 1058 1491 1074C1678.39 1089.14 1738.23 938.202 1821 968C1921 1004 1881 1242 1965 1440H-2.00052V926C-2.00052 926 -19.0965 943.08 62.9995 858C172.998 744 281.658 611.525 391.999 580C514.999 544.857 750.361 642 785 706Z" fill="white" fill-opacity="0.7"/>
<path d="M331.001 900C214.001 1097 232 1299 281.001 1439.84H1218C1244 1334 1273 1251 1248 1173C1221.4 1090 1106.17 1046.66 936 1016C629 960.695 765 701 507 748C432.472 761.577 376.731 823 331.001 900V900Z" fill="white" fill-opacity="0.7"/>
<path d="M2468 539C2518 594 2560 630 2560 630V1438H486.999C498.999 1323 485.345 1273 486.999 1180C491.621 920 634.447 810.514 728.999 750C828.999 686 953.999 678 1010.5 718C1067 758 1075 746.046 1091 743.5C1107 740.955 1146.1 642 1180 544C1235 385 1394 314 1522 290C1574.32 280.189 1671 290 1808 296C1916.57 300.755 2002 314 2089 326C2176 338 2227 360 2290 396C2353 432 2395.27 459 2468 539Z" fill="white" fill-opacity="0.7"/>
<path d="M1456 810C1427.14 747.1 1454.91 699.551 1484 676C1542.85 628.354 1601.46 651.98 1639.31 701.362C1683.9 759.537 1636 834.555 1592 873C1553.56 906.58 1492.07 888.625 1456 810ZM794.946 966.656C768.686 876.318 813.303 810.874 840.518 788.84C908.445 733.845 980.88 753.876 1024.57 810.874C1076.03 878.02 1104.59 999.954 1024.57 1053C937 1111.04 819.068 1049.64 794.946 966.656V966.656ZM2046 1058C2121.63 964.5 2164.4 846.632 2223 875C2339 945 2389.73 1106 2331 1217C2272.27 1328 2189 1355.52 2100.27 1313.95C1984.68 1259.81 1981.69 1137.5 2046 1058ZM394 1122.74C338.196 1007.89 347.938 896 394 830C468 733 573 720 618 760C663 800 614.381 909.286 632 978C651.58 1054.36 658.681 1083.93 667.434 1120.38L668 1122.74C672.866 1143 662 1197.23 626 1219C550 1264.95 433 1203 394 1122.74ZM1275.5 553C1305.5 535.4 1335 542.5 1350 557.5C1368 575.5 1366 591.5 1365.5 602.5C1365 613.5 1340 689 1284.5 703C1229 717 1205.5 673.5 1205.5 640C1205.5 606.5 1238 575 1275.5 553Z" fill="white" fill-opacity="0.7"/>
</g>
<defs>
<clipPath id="clip0_98_2343">
<rect width="2560" height="1440" fill="white"/>
</clipPath>
</defs>
</svg>
