<svg width="2560" height="1440" viewBox="0 0 2560 1440" fill="none" xmlns="http://www.w3.org/2000/svg">
<g clip-path="url(#clip0_98_2486)">
<path d="M2449 529C2537 682 2602 884 2534 1137.69C2501.48 1259 2447.82 1356 2378.34 1438.69L2378.08 1439H1186C1087 1346 1077 1221 1061 1145C1045 1069 902 1130 813 1014C724 898 792 801 856 763C922.892 723.283 1007 746 1041 768C1075 790 1096 798 1120 763C1144 728 1190 605 1210 505C1226 425 1340.67 311.667 1396 265C1529 177 1670 166 1670 166C1670 166 1820 136 2039 216C2223.71 283.475 2353.13 362.32 2449 529ZM412 956C249 956 73.9997 1192 106 1440H891C898 1298 851 1208 637 1106C530 1046 505 956 412 956Z" fill="white" fill-opacity="0.7"/>
<path d="M2114 1093C1930.21 1076.06 1592 1237 1559 1439.74H2561V1333C2432 1181 2255 1106 2114 1093Z" fill="white" fill-opacity="0.7"/>
<path d="M557 743.001C355 840.001 396 1011 408 1127C420 1243 536 1379 592 1440H1650C1650 1440 1661.4 1422.8 1679 1362C1701 1286 1711 1250 1748 1178C1785 1106 1822 1056 1881 1006C1958 940.747 2013 809.001 1947 771.001C1878.28 731.434 1805.74 827.853 1760 899.001C1724 955.001 1687 1017 1641 1040C1602.24 1059.38 1568 1084 1451 1024C1357.4 976.001 1356 942.001 1262 916.001C986 874.001 1041 717 928 645C815 573 710.842 669.126 557 743.001Z" fill="white" fill-opacity="0.7"/>
<path d="M801 660C896.257 836 981.909 907 1078 949C1144.12 977.898 1275.85 1045 1487 1045C1556.54 1045 1644 978 1702 924C1758.65 871.253 1902.58 762.455 1957 788C2055 834 1882 1076 2017 1440H-2.00052V846C-2.00052 846 -19.0965 863.08 62.9995 778C172.998 664 275.658 559.526 385.999 528C508.999 492.858 766.361 596 801 660Z" fill="white" fill-opacity="0.7"/>
<path d="M303 900.002C198.526 1103.92 218.5 1299 267.5 1439.84H1242.5C1268.5 1334 1297.5 1251 1272.5 1173C1245.9 1090 1116.17 1036.66 946 1006C639 950.697 833 682.151 507 720C373.5 735.5 339.377 829 303 900.002Z" fill="white" fill-opacity="0.7"/>
<path d="M2560 547V1438H437C449 1323 435.346 1273 436.999 1180C441.622 920 539 839.6 679 750C779 686 866 642.334 966 649C998 653 1067.6 653.6 1090 624C1112.4 594.4 1140 548 1157 479C1189.77 346 1423 229 1535 214C1587.76 206.933 1702 194 1873 222C1980.24 239.56 2082 265 2194 298C2306 331 2382 387 2451 446C2520 505 2560 547 2560 547Z" fill="white" fill-opacity="0.7"/>
<path d="M1448.63 817.227C1416.63 747.483 1447.42 694.76 1479.67 668.648C1544.93 615.817 1610.03 638.245 1652 692.999C1701.44 757.504 1645.22 844.453 1596.43 887.081C1553.81 924.315 1488.63 904.407 1448.63 817.227V817.227ZM2059 1020C2139 918 2143 802 2219 824C2342 895.001 2393.99 1079.75 2342 1178C2290.01 1276.25 2189 1317.82 2100.27 1276.25C1984.68 1222.11 1995.6 1100.83 2059 1020ZM381.001 1078.61C332.599 979.001 344.446 899 381.001 828C433 727 595 708.111 632.001 741C669.001 773.889 614.382 865.156 632.001 933.87C652.001 1011.87 665.304 1037.37 671.5 1075.5C678 1115.5 662 1153.1 626 1174.87C550 1220.82 420.001 1158.87 381.001 1078.61ZM1239.5 535C1268 518.313 1328 503 1362 524.501C1392 547.888 1393.7 573.896 1392 587.5C1387 627.5 1337.24 725.57 1268 743C1198.76 760.431 1161.5 695.21 1161.5 653.5C1161.5 579 1212.5 550.808 1239.5 535Z" fill="white" fill-opacity="0.7"/>
</g>
<defs>
<clipPath id="clip0_98_2486">
<rect width="2560" height="1440" fill="white"/>
</clipPath>
</defs>
</svg>
