<svg width="2560" height="1440" viewBox="0 0 2560 1440" fill="none" xmlns="http://www.w3.org/2000/svg">
<g clip-path="url(#clip0_98_2597)">
<path d="M2037 166C2233 237.598 2371.13 315.32 2467 482C2501.4 541.813 2542.55 616.298 2560 700V1123C2556.15 1164.1 2542.94 1198.66 2526.94 1240.55L2526 1243C2492 1332 2402.24 1439.59 2403.09 1438.59L2402.83 1438.9L1166 1439C1067 1346 1069.56 1275.68 1045 1202C1007 1088 896.507 1148.4 802.999 1036C703.999 917 764.921 831.82 812.999 775C845.999 736 897.502 707 937.999 707C1036 707 1043 744 1097 713C1151 682 1166 596 1186 496C1202 416 1255 309.151 1341 242C1487 128 1617 128 1617 128C1617 128 1818 85.9999 2037 166V166ZM406.999 910C243.999 910 40.9992 1200 95.9992 1440H902.999C910.999 1266 803.999 1172 658.999 1097C492.999 995 499.999 910 406.999 910Z" fill="white" fill-opacity="0.7"/>
<path d="M1521 1439.74H2561V1279C2415 1133 2253.1 1051.5 2111.5 1051.5C1978.19 1051.5 1708 1188 1606 1255C1541 1304 1534.45 1357.12 1521 1439.74Z" fill="white" fill-opacity="0.7"/>
<path d="M1107.51 800.516C1096.82 790.13 1087.73 777.915 1083.04 763.762C1080.57 756.32 1078.83 748.331 1079 741C1079.5 719 1090 716.5 1111.5 733C1114.67 735.433 1118.76 738.747 1123.54 742.613C1151.16 764.962 1201.57 805.763 1228 801.5C1259 796.5 1319.5 746.5 1364 681.5C1408.5 616.5 1431 558 1405 525C1379 492 1297 465.5 1231 503C1165 540.5 1123 592 1101 634.5C1079 677 1064 676.5 1026 653C1022.15 650.621 1017.94 647.966 1013.42 645.118C973.266 619.825 908.939 579.304 864 582C863.805 582.012 863.613 582.026 863.424 582.041C810.379 582.802 754.562 616.445 691.922 654.2C643.761 683.228 591.567 714.687 533.5 735.5C322.558 811.109 366.459 1025.5 391 1126C415.541 1226.5 489.5 1354.5 566 1440H1666C1666 1440 1674.71 1413.97 1688 1378C1692.51 1365.79 1696.46 1354.98 1700.04 1345.16C1719.47 1291.87 1728.26 1267.8 1759.5 1207C1796.5 1135 1842.5 1078.5 1900 1019.5C2010.35 906.273 2032 781 1966 743C1897.28 703.433 1800.5 778.5 1742.5 879.5C1709.35 937.232 1668.5 1001 1622.5 1024C1577.5 1046.5 1522 1057.5 1406.5 988C1371.23 966.775 1345.57 945.009 1321.76 924.818C1284.74 893.417 1252.21 865.825 1195 850C1159.28 841.935 1131.57 823.871 1107.51 800.516Z" fill="white" fill-opacity="0.7"/>
<path d="M830.953 625C915 766 870.5 842 1091.5 929.5C1158.59 956.062 1289 1009 1488 1015C1557.51 1017.1 1607.36 943.415 1675 873C1748 797 1919.24 696.534 1997 743C2140 828.451 1924 1080 2065 1440H-2V762L68 696C68 696 264 499 388.001 478C514.127 456.64 793.693 562.489 830.953 625Z" fill="white" fill-opacity="0.7"/>
<path d="M271 899C161.5 1141.5 205.5 1299 254.5 1439.84H1260C1272.5 1377 1300.25 1231.5 1281.5 1173C1254.9 1090 1137.59 1027.44 944.5 992C776.312 961.132 755.812 860.098 728.678 773.391C722.118 752.428 711.596 732.124 693.048 720.358C651.965 694.298 583.882 684.771 487.5 691.999C353.48 702.051 304.179 825.521 271 899Z" fill="white" fill-opacity="0.7"/>
<path d="M2272 267C2376 306.2 2508 416.667 2561 467V1441H396.001C396.668 1434.33 397.601 1412.6 396.001 1379C394.001 1337 387.001 1215 408.001 1021C429.001 827 560.001 785 670.001 722C780.001 659 860 623 927 602C994 581 1056 541 1080 471C1104 401 1172 334 1213 301C1254 268 1280 157 1585 133C1890 109 2142 218 2272 267Z" fill="white" fill-opacity="0.7"/>
<path d="M1442 829.999C1410 760.255 1434.67 705.499 1470.5 667.499C1520 614.999 1613.56 617.996 1663 682.499C1712.44 747.003 1641.97 858.913 1593.18 901.541C1550.56 938.775 1482 917.179 1442 829.999ZM2059 1003.71C2135.9 905.666 2143.5 758.915 2202.59 769.889C2207.61 770.821 2212.22 773.193 2216.54 775.908C2319.8 840.827 2408.45 1049.37 2349 1161.71C2288.3 1276.43 2189 1301.53 2100.27 1259.96C1984.68 1205.82 1995.6 1084.54 2059 1003.71ZM381.001 1078.61C332.599 979 336.446 886 373 815C424 703 601.5 687.5 649.5 727.5C697.5 767.5 630 870 642.5 939C656.854 1018.23 665.304 1037.37 671.5 1075.5C678 1115.5 662.001 1153.1 626.001 1174.87C550.001 1220.82 420.001 1158.87 381.001 1078.61V1078.61Z" fill="white" fill-opacity="0.7"/>
</g>
<defs>
<clipPath id="clip0_98_2597">
<rect width="2560" height="1440" fill="white"/>
</clipPath>
</defs>
</svg>
