<svg width="2560" height="1440" viewBox="0 0 2560 1440" fill="none" xmlns="http://www.w3.org/2000/svg">
<g clip-path="url(#clip0_98_2673)">
<path d="M473.999 765C306.999 765 -30.0009 1147 75.9991 1440H932.999C953.999 1212 832.999 1149 687.999 1074C505.999 959 599.999 784 473.999 765ZM1455 1439.74H2561V1179C2415 1033 2194 954 2111.5 954C2035 954 1967.08 1006.76 1848 1054C1720.13 1104.73 1574.07 1151.31 1543 1186C1478 1235 1466 1367 1455 1439.74Z" fill="white" fill-opacity="0.7"/>
<path d="M817.001 456C1083 692 906.001 767 1148 891C1212.22 923.904 1329 952 1473 952C1564 943 1558 849 1622 795C1724.54 708.485 1977 612 2068 685C2184.25 778.254 2068 988 2165 1440H0V609L78.001 547C78.001 547 266.001 387 390.001 366C516.128 344.64 737.125 385.133 817.001 456Z" fill="white" fill-opacity="0.7"/>
<path d="M232.5 857.999C108.777 1132 179.5 1299 228.501 1439.84H1291C1303.5 1377 1323.75 1223.5 1305 1165C1278.4 1082 1199 1019.31 990.001 978C818.001 944 809.135 886.707 782.001 800C775.441 779.037 771.001 701.202 736.001 679C694.918 652.94 543.383 625.771 447.001 633C312.981 643.051 265.679 784.521 232.5 857.999Z" fill="white" fill-opacity="0.7"/>
<path d="M1797 1230C1777 1267.6 1714 1385.67 1685 1440L536.002 1439C492.668 1378 394.001 1246 363.502 1161.5C323.257 1050 336.502 889.5 363.502 799.5C390.502 709.5 492.502 695 575.002 673C657.502 651 742.502 576.5 778.502 522C814.502 467.5 836.502 453.5 871.002 452.5C905.502 451.5 967.002 468 1001.5 471.5C1036 475 1065 459 1102.5 445.5C1140 432 1185 431.5 1253 430C1321 428.5 1395 438 1435 473C1475 508 1463 572 1435 619C1407 666 1345 741 1321 797C1297 853 1343 913 1436 980C1529 1047 1616 986 1650 952C1684 918 1757 788 1817 732C1877 676 2007 662 2040 755C2073 848 1983 984 1923 1053C1863 1122 1822 1183 1797 1230Z" fill="white" fill-opacity="0.7"/>
<path d="M1426.51 833.782C1392.2 759.012 1425.59 697.738 1464 657C1517.07 600.717 1607.15 582.92 1680.58 666.005C1745.02 738.904 1647.14 867.227 1596.96 915.258C1534.25 975.293 1469.39 927.243 1426.51 833.782ZM2059 974.412C2135.9 876.366 2106.5 705.5 2177 691C2201 686.064 2216.5 700.499 2216.5 700.499C2313 775.5 2442 995.992 2359 1138C2295.29 1247 2189 1272.23 2100.27 1230.66C1984.68 1176.52 1995.6 1055.24 2059 974.412ZM376.803 1045.62C321 944 328.446 853.001 365.001 782C411 673 622.803 661 673.803 693C724.803 725.001 648 826 656 914C656 914 667.607 1002.49 673.803 1040.62C680.303 1080.62 664.303 1118.23 628.303 1139.99C552.303 1185.95 425.478 1134.26 376.803 1045.62Z" fill="white" fill-opacity="0.7"/>
<path d="M1460.06 762.797C1435.54 717 1448.69 691.175 1460.06 679.602C1500.04 636.367 1577 666.001 1611.5 702.5C1651.67 745 1690 838 1619 884C1566.56 910.858 1488 815 1460.06 762.797ZM1602 1225C1753 1215 1852 1240 1915 1276C1965.4 1304.8 2060 1397.33 2101 1440H1097C1123.67 1405.33 1192.2 1328.4 1253 1298C1329 1260 1451 1235 1602 1225Z" fill="white" fill-opacity="0.7"/>
<path d="M2561 1259C2555.67 1269.33 2540 1298.6 2520 1333C2500.3 1366.89 2457.62 1418.44 2437.88 1441H1131C1108.33 1416.33 1056.8 1353.6 1032 1300C1001 1233 962.999 1196 935.999 1172C908.999 1148 838.999 1111 763.999 1045C688.999 979 707.999 899 770.999 789C833.999 679 988.999 655 1054 636C1119 617 1122 559 1118 487C1114 415 1138 369 1193 278C1248 187 1369 69 1663 25C1957 -19 2151 94 2305 197C2428.2 279.4 2527 434 2561 501V1259Z" fill="white" fill-opacity="0.7"/>
<path d="M2106 63C2287.6 118.2 2484.33 249.333 2560 308V1439H316.001C310.001 1386.33 299.201 1246 304.001 1106C310.001 931 361.001 802 422.001 754C483.001 706 583.001 703 683.001 655C783.001 607 831.001 533 854.001 457C877.001 381 927.001 348 973.001 319C1019 290 1045 253 1102 181C1159 109 1223 77 1327 46C1410.2 21.2 1557 4.99997 1620 -2.84463e-05H1743C1788.33 -2.00003 1924.4 7.79997 2106 63Z" fill="white" fill-opacity="0.7"/>
<path d="M1292 764C1250.4 764.8 1199.93 718.5 1187 703.5C1172.35 686.5 1149.7 657.5 1166.5 609.5C1187.5 549.5 1295 511.5 1352.5 511.5C1410 511.5 1468 534 1506.5 592C1545 650 1506.5 710.5 1468 729C1429.5 747.5 1344 763 1292 764Z" fill="white" fill-opacity="0.7"/>
</g>
<defs>
<clipPath id="clip0_98_2673">
<rect width="2560" height="1440" fill="white"/>
</clipPath>
</defs>
</svg>
