<svg width="2560" height="1440" viewBox="0 0 2560 1440" fill="none" xmlns="http://www.w3.org/2000/svg">
<g clip-path="url(#clip0_98_2656)">
<path d="M66 1440H933C954 1212 902 1158 700 1060C498 945 666 741 479 723C383 723 192.633 877.694 101 1068C42.853 1188.76 24.849 1326.25 66 1440ZM1422 1439.74H2561V1130C2428 1018 2190.5 885 2114 885C2037.5 885 1983 993 1820 1028C1697 1057 1677.49 1027.52 1628 1057C1556.28 1099.72 1474.47 1190.59 1450 1271C1428.07 1343.07 1427.2 1405.36 1422 1439.74Z" fill="white" fill-opacity="0.7"/>
<path d="M289 346C204.2 381.2 59 486 -3 534V694H0V1440H2219C2206.33 1383.33 2178.2 1211.2 2167 976C2153 682 2112.67 662.576 2041 630C1979.24 601.927 1876.1 633.947 1782.06 663.143C1742.11 675.546 1703.8 687.44 1671 694C1605.96 707.008 1576.58 656.386 1544.82 601.67C1522.87 563.848 1499.78 524.071 1463 502C1385.95 455.771 1295.71 481.366 1173.45 516.042C1152.9 521.871 1131.45 527.956 1109 534C1017.4 558.66 960.972 509.544 892.338 449.806C844.079 407.804 789.789 360.55 713 330C527 256 395 302 289 346ZM1377 897C1363.33 891.333 1335.1 876 1331.5 860C1327 840 1351.5 815 1382 802.5C1412.5 790 1477 787 1495 789C1513 791 1534 809.5 1525 846C1516 882.5 1496.5 921.5 1453 917C1418.2 913.4 1387.83 902.167 1377 897Z" fill="white" fill-opacity="0.7"/>
<path d="M205 858C97.5329 1096 144 1273 218.5 1439.84H1306C1318.5 1377 1338.75 1223.5 1320 1165C1294.36 1085 1199 1005.31 990 964C833 921 827.134 888.707 800 802C787.169 761 800 697 754 658C724 632.566 667.683 635.273 599 624C543.252 614.85 484.182 600.762 441.001 604C301.001 614.5 238.179 784.521 205 858V858Z" fill="white" fill-opacity="0.7"/>
<path d="M327 829C299 933 311 1070 355 1184C385.626 1263.35 473.667 1388 518 1439H1705C1802 1235 1844 1163 1955 1044C2049.54 942.647 2125 713 1980 671C1835 629 1720 821 1677 890C1634 959 1559 1025 1459 979C1359 933 1300 835 1399 695C1498 555 1493 492 1465 456C1437 420 1394 402 1330 395C1266 388 1238 382 1193 374C1148 366 1106 387 1025 402C943.999 417 868.999 372 808.999 382C748.999 392 756.999 454 738.999 509C720.999 564 662.999 649 515.999 661C369 673 355 725 327 828.999V829Z" fill="white" fill-opacity="0.7"/>
<path d="M1423.51 842.782C1389.2 768.012 1422.59 694.738 1461 654C1514.07 597.717 1619.06 575.415 1692.5 658.5C1759.5 731 1656.68 864.223 1593.96 924.258C1531.25 984.293 1466.39 936.244 1423.51 842.782ZM2061 961C2143.9 842 2088.5 675.501 2159 661.001C2192 648 2224 678.029 2224 678.029C2320.5 753.03 2448 983.993 2365 1126C2301.29 1235 2178.03 1261.29 2100.26 1217.69C1992 1157 1996.91 1053 2061 961ZM376.802 1045.62C320.999 943.999 315.598 853.481 355 773C401.999 677 624.999 636.015 685.498 679.501C747.498 724.064 657.499 818.499 663.499 913.999C663.499 913.999 662.976 973.999 673.802 1040.62C680.302 1080.62 664.302 1118.22 628.302 1139.99C552.302 1185.94 425.477 1134.26 376.802 1045.62V1045.62Z" fill="white" fill-opacity="0.7"/>
<path d="M1450 789C1425.49 743.204 1420 700 1450 671C1499 623.632 1565 633 1628 688.001C1696 741 1725 913.5 1634 967C1581.56 993.858 1477.94 841.204 1450 789ZM1584 1192C1740 1181.67 1854 1183 1917 1219C2022 1279 2100 1387 2142 1440H1045C1071.67 1405.33 1154.2 1316.4 1215 1286C1291 1248 1433 1202 1584 1192Z" fill="white" fill-opacity="0.7"/>
<path d="M1540.38 0C1318.49 52.717 1210.85 151.789 1155 260C1147.27 272.783 1139.92 284.5 1133.03 295.488C1090.85 362.717 1065.83 402.609 1077 492C1081 564 1047 608.062 948.001 637C883.001 656 803.001 717 737.001 816C674.001 926 693.001 981 760.001 1061C778.999 1083.68 825.82 1116.77 866.813 1145.73C892.683 1164.01 916.233 1180.65 929.001 1192C956.001 1216 981.001 1242 1012 1309C1036.8 1362.6 1083.33 1416.33 1106 1441L2467.3 1440.66C2481.64 1424.28 2494.51 1404.97 2508.14 1384.52C2513.28 1376.81 2518.52 1368.94 2524 1361C2524 1361 2555.67 1313.33 2561 1303V434C2527 367 2422.2 218.399 2299 135.999C2219.62 82.91 2126.43 31.415 2014.5 0H1540.38Z" fill="white" fill-opacity="0.7"/>
<path d="M2322 82C2493 171 2510 193 2560 230V1439H266.001C260.001 1386.33 249.201 1246 254.001 1106C260.001 931 303.001 759 391.001 696C479.001 633 519.001 701 678.001 621C812.217 553.47 769.001 432 792.001 356C815.001 280 912.001 273 976.001 190C1016 152 1029.41 102.115 1113 58C1185 20 1194 21 1259 0H2112C2167 14 2202 27 2322 82Z" fill="white" fill-opacity="0.7"/>
</g>
<defs>
<clipPath id="clip0_98_2656">
<rect width="2560" height="1440" fill="white"/>
</clipPath>
</defs>
</svg>
