<svg width="2560" height="1440" viewBox="0 0 2560 1440" fill="none" xmlns="http://www.w3.org/2000/svg">
<g clip-path="url(#clip0_98_2578)">
<path d="M34.999 1440H953.499C970.999 1345 1004.7 1217 982.999 1174C955.031 1118.57 880.999 1106 755.999 1042C642.171 977.197 660.286 841.326 651.999 745.524C650.239 725.174 644.026 704.979 630.325 689.829C589.652 644.856 521.301 636 449.999 636C308.999 636 116.999 870 37.999 1048C-16.373 1170.51 -6.15197 1326.25 34.999 1440Z" fill="white" fill-opacity="0.7"/>
<path d="M116.5 238.999C48 280.024 0 312.999 0 312.999L-3 694H0V1440H2355.5C2342.83 1383.33 2334.3 1169.6 2290 940.5C2229 625 2141 555.5 2042 529C1958.7 506.703 1897.92 556.083 1800 566.5C1716.5 575.5 1680.5 520 1676.5 516C1641.5 475 1626.16 456.324 1577 413C1518 361 1449.79 319.021 1421 313C1311 290 1334 260 1240 232C1140 202.212 1122 247 1057 191C992 135 922 95 759 84C596 73 457.5 106.5 410 120C278 157.515 185 197.975 116.5 238.999Z" fill="white" fill-opacity="0.7"/>
<path d="M253.499 824C246.669 918.479 261.999 1078 305.999 1192C336.626 1271.35 413.666 1388 457.999 1439H1759C1856 1235 1904 1180.5 1994 1071.5C2103.71 938.633 2173.5 678.5 2010.5 617C1784 568.5 1707.5 761.5 1646.5 867.5C1603.5 936.5 1518.5 974.014 1471.5 948.5C1424.5 922.986 1319.5 853.5 1418.5 713.5C1514.5 608 1587.88 544.825 1561.5 450.5C1545 391.5 1537.5 362.5 1496 289C1477.93 257 1416.5 155.451 1332.5 122C1299.3 108.779 1173 55.9999 1020 101.5C891.178 139.809 808.111 171.948 718.499 195.5C628.887 219.052 599.999 248.5 567.499 292C534.999 335.5 535.999 375 499.999 417.5C472.046 450.5 416.566 458.5 365.499 514.5C277.499 611 259.499 740.999 253.499 824Z" fill="white" fill-opacity="0.7"/>
<path d="M127.001 878C52.0009 1157 112.001 1318 182.001 1439.84H1336C1348.5 1377 1375.72 1239 1352 1165C1321.87 1071 1236 998 1024 940.5C909.001 899 867.001 861 854.001 802C841.171 761 860.001 642 800.001 585C757.292 544.427 703.951 553.521 620.001 544.501C608.069 543.219 596.284 540.598 584.793 537.134C488.43 508.087 438.001 498.113 381.001 517.001C212.001 573 147.001 816 127.001 878ZM1405 850.999C1370.5 740.5 1394.72 715 1445.5 654C1530 552.5 1611.5 549.5 1729 635.5C1809 699.5 1666.43 875.388 1600.97 938.048C1518.5 1011.5 1442.35 952.952 1405 850.999ZM2061 921.278C2143.9 802.278 2028.5 649.1 2104.5 603.5C2172 563 2249 623 2249 623C2354.5 707 2463.82 945.474 2377 1094.01C2313.29 1203.01 2178.03 1221.56 2100.26 1177.97C1992 1117.28 1996.91 1013.28 2061 921.278Z" fill="white" fill-opacity="0.7"/>
<path d="M376.803 1006.36C328.5 923 300.5 822.499 334.5 733.742C359.301 668.999 402 623.5 474.5 623.5C497.571 623.5 535.5 632.5 574.5 623.5C643.573 607.559 692.726 614.226 710.5 632C791.5 700 703 777.5 682 877.5C682 877.5 670 935.5 673.803 1001.36C673.803 1039.5 664.303 1078.97 628.303 1100.73C552.303 1146.69 427.003 1093 376.803 1006.36ZM2390 874C2446 903.6 2527.33 961 2561 986V1440H1330C1352 1337.5 1326.57 1294.5 1390 1205C1463 1102 1474 1076 1476 1023C1479.25 937 1428 859 1401 801C1374 743 1383.21 636.731 1457 605C1557 562 1629 608.458 1692.5 652C1727.5 676 1790.37 714.419 1804 772C1819.5 837.5 1825.39 869 1867 869C1897.5 869 1925.4 823.107 1960 768C2014 682 2117.5 625 2195 688C2225.75 712.994 2320 837 2390 874Z" fill="white" fill-opacity="0.7"/>
<path d="M1478 1136C1646 1072.75 1872 1022 1966 1072C2086 1124 2216 1376.5 2257 1440H933C971 1360.5 988 1292.5 1067 1261C1143 1223 1308 1200 1478 1136Z" fill="white" fill-opacity="0.7"/>
<path d="M1231 0C1231 0 1181 20 1094 109.5C1062.41 142 1016.45 239 997 270C948.38 347.5 936 372.5 936 478C936 544 898.515 589.312 866 619C797 682 763 717 697 816C634 926 646 1012 713 1092C738.333 1112.33 798 1161 834 1193C870 1225 894.333 1257.67 902 1270C929.693 1307.76 945 1326 967 1360C993.529 1401 1032.54 1440.5 1032.69 1440.67L2486.5 1440.5H2530.5C2530.5 1440.5 2547 1426.5 2561 1402.5V211.5C2535 177.5 2501.5 141 2451.5 91C2425.19 64.692 2382.5 30 2339 0H1231Z" fill="white" fill-opacity="0.7"/>
<path d="M385 430C472.5 354 505 284 547 228C580.406 183.459 747.06 58.784 827.605 1H2560.5V1440H135.5C133.667 1434 134.876 1407.21 127 1350.5C107 1206.5 107 1043.5 182 785C224.434 638.745 309.031 495.985 385 430Z" fill="white" fill-opacity="0.7"/>
</g>
<defs>
<clipPath id="clip0_98_2578">
<rect width="2560" height="1440" fill="white"/>
</clipPath>
</defs>
</svg>
