<svg width="2560" height="1440" viewBox="0 0 2560 1440" fill="none" xmlns="http://www.w3.org/2000/svg">
<g clip-path="url(#clip0_98_2244)">
<path d="M31.0001 1440H964C981.5 1345 1038.2 1205.5 1016.5 1162.5C988.532 1107.07 892 1098 767 1034C653.5 964.5 667.5 845 676.5 740.5C676.5 681.499 638 660.499 626 651C558.5 607 483.5 599.576 423 607.999C265 629.999 62.5001 907 20.0001 1036C12.0461 1053.92 5.46808 1072.61 0.205078 1091.85V1350.5C7.91308 1381.63 18.2531 1411.75 31.0001 1440Z" fill="white" fill-opacity="0.7"/>
<path d="M741 10C419.4 11.6 113 164 -1 240V1440H2397C2389.67 1362 2372.2 1133.2 2305 834C2221 460 2019 474 1869 512C1719 550 1681 454 1549 272C1417 90 1143 8.00004 741 10Z" fill="white" fill-opacity="0.7"/>
<path d="M1865.5 1281C1843.9 1322.6 1759 1440 1759 1440L457.5 1440.5C426 1412.67 347.9 1322.3 287.5 1183.5C212 1010 231.5 894.5 233 762C234.177 658 321.5 496.499 332.5 481.999C343.5 467.499 443 309.999 571.5 214.999C757 77.859 976 16.499 1180 29.499C1383.05 42.439 1470.19 126.711 1515.86 170.883L1516.5 171.499C1562 215.499 1564 279.999 1573 336.999C1582 393.999 1601 488 1584.5 540.5C1568 593 1474 657.5 1433.5 715C1393 772.5 1377 832 1425.5 897.5C1474 963 1586 972 1669 803.5C1752 635 1834 608 1919.5 589.5C2005 571 2109 624 2122.5 758C2136 892 2034.5 1042.5 1993 1092.5C1951.5 1142.5 1892.5 1229 1865.5 1281Z" fill="white" fill-opacity="0.7"/>
<path d="M107 878C31.9999 1157 101.999 1318 172 1439.84H1351C1363.5 1377 1386.72 1238 1363 1164C1332.87 1070 1271 1011.83 1047 931C932 889.5 885 869 872 810C859.169 769 892 636.866 824 567C756 497.134 693.949 513.521 610 504.501C598.067 503.219 586.282 500.598 574.792 497.134C441 456.804 419 468.999 359 490C174 585 127 816 107 878ZM1405.09 854.762C1370.59 744.262 1392.75 719.743 1442 657.5C1523.5 554.5 1607 540.5 1736.5 624.499C1833.5 694 1666.51 879.15 1601.06 941.81C1518.59 1015.26 1442.44 956.715 1405.09 854.762ZM2057 906.5C2144.5 740.5 2001.5 637.2 2088.5 585C2164.5 539.4 2253.5 604.5 2253.5 604.5C2359 688.5 2471.32 935.46 2384.5 1084C2320.79 1193 2178.03 1211.1 2100.26 1167.51C1992 1106.82 2005.08 1005 2057 906.5Z" fill="white" fill-opacity="0.7"/>
<path d="M376.802 994.184C323.499 916.5 293.237 800 323.499 721C348.3 656.258 396.499 611.32 468.999 611.32C492.07 611.32 536.499 620.32 575.499 611.32C644.572 595.38 690.999 585 722.499 611.32C803.546 679.038 711.999 764 690.999 864C690.999 864 669.999 923.321 673.802 989.184C673.802 1027.32 664.302 1066.79 628.302 1088.55C552.302 1134.51 430.105 1071.87 376.802 994.184ZM2406.81 834C2428.41 848.8 2517.81 908.833 2559.81 937V1441H1315.31C1312.81 1428.67 1309.31 1389.3 1315.31 1330.5C1322.81 1257 1375.81 1190.5 1422.31 1111C1468.81 1031.5 1445.31 937.5 1395.81 830C1346.31 722.5 1371.31 626.5 1453.31 588C1535.31 549.5 1623.31 586.5 1726.31 650.5C1829.31 714.5 1864.81 726.5 1897.31 723.5C1929.81 720.5 1987.31 654.5 2076.81 634C2166.31 613.5 2249.81 687 2276.31 717C2302.81 747 2379.81 815.5 2406.81 834Z" fill="white" fill-opacity="0.7"/>
<path d="M1025 1246.5C1101 1208.5 1241.5 1197.54 1435.5 1124.5C1517.5 1093.63 1608.15 1038.37 1681 1012C1753.85 985.627 1849.5 967.564 1985 1021C2119.25 1073.94 2260.37 1364.57 2296.03 1438.01L2297 1440H901C939 1360.5 946 1278 1025 1246.5Z" fill="white" fill-opacity="0.7"/>
<path d="M1153.5 0C1153.5 0 1093.5 40 1032 128C1006.04 165.151 966.5 237 935.313 279C880.77 352.453 902.5 378 902.5 483.5C902.5 549.5 879.5 584.5 847 620.5C784.389 689.853 745.5 718 679.5 817C616.5 927 633 1028 704.5 1104C735 1134 794.5 1190.5 830.5 1222.5C856.167 1244.67 911.1 1294.8 925.5 1318C939.9 1341.2 955.167 1366 961 1375.5C987.53 1416.5 1006.5 1440.67 1006.65 1440.83L2485.81 1440.5H2529.81C2529.81 1440.5 2546.31 1426.5 2560.31 1402.5V146C2532.5 107.5 2488 65.5 2451.5 32.5C2423.9 7.548 2411 0 2411 0H1153.5Z" fill="white" fill-opacity="0.7"/>
<path d="M385 316C481 197.6 648.667 56.333 720.5 0.5H2561V1441H87.4999C85.6669 1430.33 76.2999 1368.3 75.4999 1335.5C74.4999 1294.5 75.4999 1158.5 88.9999 1038.5C102.5 918.5 141.601 762.563 171.5 678.5C206 581.5 265 464 385 316Z" fill="white" fill-opacity="0.7"/>
</g>
<defs>
<clipPath id="clip0_98_2244">
<rect width="2560" height="1440" fill="white"/>
</clipPath>
</defs>
</svg>
